# Blender v2.80 (sub 75) OBJ File: ''
# www.blender.org
mtllib arclamp_metal.mtl
o main
v -3.433100 2.370300 -3.433100
v -3.433100 2.730800 -3.433100
v -3.433100 2.730800 3.433100
v -3.433100 2.370300 3.433100
v 3.433100 2.730800 3.433100
v 3.433100 2.370300 3.433100
v 3.433100 2.730800 -3.433100
v 3.433100 2.370300 -3.433100
v 5.719900 2.730800 5.719900
v -5.719900 2.730800 5.719900
v -5.719900 1.383100 5.719900
v 5.719900 1.383100 5.719900
v 5.719900 2.730800 -5.719900
v 5.719900 1.383100 -5.719900
v -5.719900 2.730800 -5.719900
v -5.719900 1.383100 -5.719900
v 6.450700 1.383100 -6.450700
v 6.450700 1.383100 6.450700
v 6.450700 -1.347700 6.450700
v 6.450700 -1.347700 -6.450700
v -6.450700 1.383100 -6.450700
v -6.450700 -1.347700 -6.450700
v -6.450700 1.383100 6.450700
v -6.450700 -1.347700 6.450700
v 4.120000 -1.347700 4.120000
v -4.120000 -1.347700 4.120000
v -4.120000 -4.347700 4.120000
v 4.120000 -4.347700 4.120000
v 4.120000 -1.347700 -4.120000
v 4.120000 -4.347700 -4.120000
v -4.120000 -1.347700 -4.120000
v -4.120000 -4.347700 -4.120000
vt 0.559400 0.022000
vt 0.987200 0.028300
vt 0.559400 0.028300
vt 0.559400 0.022000
vt 0.987200 0.028300
vt 0.559400 0.028300
vt 0.559400 0.022000
vt 0.987200 0.028300
vt 0.559400 0.028300
vt 0.559400 0.022000
vt 0.987200 0.028300
vt 0.559400 0.028300
vt 0.896100 0.156100
vt 0.634600 0.164700
vt 0.634600 0.156100
vt 0.896100 0.156100
vt 0.634600 0.164700
vt 0.634600 0.156100
vt 0.896100 0.156100
vt 0.634600 0.164700
vt 0.634600 0.156100
vt 0.896100 0.156100
vt 0.634600 0.164700
vt 0.634600 0.156100
vt 0.792000 0.528200
vt 0.602800 0.539400
vt 0.602800 0.528200
vt 0.792000 0.528200
vt 0.602800 0.539400
vt 0.602800 0.528200
vt 0.792000 0.528200
vt 0.602800 0.539400
vt 0.602800 0.528200
vt 0.568100 0.600400
vt 0.842600 0.874900
vt 0.568100 0.874900
vt 0.602800 0.539400
vt 0.792000 0.528200
vt 0.792000 0.539400
vt 0.764700 0.058400
vt 0.806900 0.227100
vt 0.764700 0.269300
vt 0.933500 0.227100
vt 0.975700 0.269300
vt 0.933500 0.100500
vt 0.975700 0.058400
vt 0.806900 0.100500
vt 0.829000 0.858600
vt 0.815300 0.631800
vt 0.829000 0.618200
vt 0.602200 0.631800
vt 0.588600 0.618200
vt 0.602200 0.845000
vt 0.588600 0.858600
vt 0.815300 0.845000
vt 0.896100 0.156100
vt 0.634600 0.164700
vt 0.634600 0.156100
vt 0.896100 0.156100
vt 0.634600 0.164700
vt 0.634600 0.156100
vt 0.896100 0.156100
vt 0.634600 0.164700
vt 0.634600 0.156100
vt 0.896100 0.156100
vt 0.634600 0.164700
vt 0.634600 0.156100
vt 0.634600 0.156100
vt 0.634600 0.156100
vt 0.634600 0.156100
vt 0.987200 0.022000
vt 0.987200 0.022000
vt 0.987200 0.022000
vt 0.987200 0.022000
vt 0.896100 0.164700
vt 0.896100 0.164700
vt 0.896100 0.164700
vt 0.896100 0.164700
vt 0.792000 0.539400
vt 0.792000 0.539400
vt 0.792000 0.539400
vt 0.842600 0.600400
vt 0.602800 0.528200
vt 0.896100 0.164700
vt 0.896100 0.164700
vt 0.896100 0.164700
vt 0.896100 0.164700
vt 0.634600 0.156100
vn 1.0000 -0.0000 0.0000
vn 0.0000 0.0000 -1.0000
vn -1.0000 0.0000 0.0000
vn 0.0000 -0.0000 1.0000
vn 0.0000 -1.0000 -0.0000
vn 0.0000 1.0000 -0.0000
usemtl None
s 1
f 2/1/1 4/2/1 1/3/1
f 3/4/2 6/5/2 4/6/2
f 5/7/3 8/8/3 6/9/3
f 7/10/4 1/11/4 8/12/4
f 10/13/4 12/14/4 9/15/4
f 9/16/1 14/17/1 13/18/1
f 13/19/2 16/20/2 15/21/2
f 15/22/3 11/23/3 10/24/3
f 18/25/1 20/26/1 17/27/1
f 17/28/2 22/29/2 21/30/2
f 21/31/3 24/32/3 23/33/3
f 22/34/5 19/35/5 24/36/5
f 19/37/4 23/38/4 24/39/4
f 10/40/6 2/41/6 15/42/6
f 15/42/6 7/43/6 13/44/6
f 13/44/6 5/45/6 9/46/6
f 9/46/6 3/47/6 10/40/6
f 17/48/6 12/49/6 18/50/6
f 18/50/6 11/51/6 23/52/6
f 23/52/6 16/53/6 21/54/6
f 21/54/6 14/55/6 17/48/6
f 26/56/4 28/57/4 25/58/4
f 25/59/1 30/60/1 29/61/1
f 29/62/2 32/63/2 31/64/2
f 31/65/3 27/66/3 26/67/3
f 32/68/6 28/69/6 27/70/6
f 2/1/1 3/71/1 4/2/1
f 3/4/2 5/72/2 6/5/2
f 5/7/3 7/73/3 8/8/3
f 7/10/4 2/74/4 1/11/4
f 10/13/4 11/75/4 12/14/4
f 9/16/1 12/76/1 14/17/1
f 13/19/2 14/77/2 16/20/2
f 15/22/3 16/78/3 11/23/3
f 18/25/1 19/79/1 20/26/1
f 17/28/2 20/80/2 22/29/2
f 21/31/3 22/81/3 24/32/3
f 22/34/5 20/82/5 19/35/5
f 19/37/4 18/83/4 23/38/4
f 10/40/6 3/47/6 2/41/6
f 15/42/6 2/41/6 7/43/6
f 13/44/6 7/43/6 5/45/6
f 9/46/6 5/45/6 3/47/6
f 17/48/6 14/55/6 12/49/6
f 18/50/6 12/49/6 11/51/6
f 23/52/6 11/51/6 16/53/6
f 21/54/6 16/53/6 14/55/6
f 26/56/4 27/84/4 28/57/4
f 25/59/1 28/85/1 30/60/1
f 29/62/2 30/86/2 32/63/2
f 31/65/3 32/87/3 27/66/3
f 32/68/6 30/88/6 28/69/6
