mtllib lampBase.mtl
o main
v -3.4331 2.3703 -3.4331
v -3.4331 2.7308 -3.4331
v -3.4331 2.7308 3.4331
v -3.4331 2.3703 3.4331
v 3.4331 2.7308 3.4331
v 3.4331 2.3703 3.4331
v 3.4331 2.7308 -3.4331
v 3.4331 2.3703 -3.4331
v 5.7199 2.7308 5.7199
v -5.7199 2.7308 5.7199
v -5.7199 1.3831 5.7199
v 5.7199 1.3831 5.7199
v 5.7199 2.7308 -5.7199
v 5.7199 1.3831 -5.7199
v -5.7199 2.7308 -5.7199
v -5.7199 1.3831 -5.7199
v 6.4507 1.3831 -6.4507
v 6.4507 1.3831 6.4507
v 6.4507 -1.3477 6.4507
v 6.4507 -1.3477 -6.4507
v -6.4507 1.3831 -6.4507
v -6.4507 -1.3477 -6.4507
v -6.4507 1.3831 6.4507
v -6.4507 -1.3477 6.4507
v 4.12 -1.3477 4.12
v -4.12 -1.3477 4.12
v -4.12 -4.3477 4.12
v 4.12 -4.3477 4.12
v 4.12 -1.3477 -4.12
v 4.12 -4.3477 -4.12
v -4.12 -1.3477 -4.12
v -4.12 -4.3477 -4.12
# 32 vertices

vn 1.0000 0.0000 -0.0000
vn 0.0000 0.0000 -1.0000
vn -1.0000 0.0000 -0.0000
vn 0.0000 0.0000 1.0000
vn 0.0000 -1.0000 -0.0000
vn 0.0000 1.0000 -0.0000
# 6 vertex normals

vt 0.5594 0.0283 0.0000
vt 0.5594 0.0220 0.0000
vt 0.9872 0.0220 0.0000
vt 0.9872 0.0283 0.0000
vt 0.6346 0.1561 0.0000
vt 0.8961 0.1561 0.0000
vt 0.8961 0.1647 0.0000
vt 0.6346 0.1647 0.0000
vt 0.6028 0.5282 0.0000
vt 0.7920 0.5282 0.0000
vt 0.7920 0.5394 0.0000
vt 0.6028 0.5394 0.0000
vt 0.5681 0.8749 0.0000
vt 0.5681 0.6004 0.0000
vt 0.8426 0.6004 0.0000
vt 0.8426 0.8749 0.0000
vt 0.7647 0.2693 0.0000
vt 0.7647 0.0584 0.0000
vt 0.8069 0.1005 0.0000
vt 0.8069 0.2271 0.0000
vt 0.9757 0.2693 0.0000
vt 0.9335 0.2271 0.0000
vt 0.9757 0.0584 0.0000
vt 0.9335 0.1005 0.0000
vt 0.8290 0.6182 0.0000
vt 0.8290 0.8586 0.0000
vt 0.8153 0.8450 0.0000
vt 0.8153 0.6318 0.0000
vt 0.5886 0.6182 0.0000
vt 0.6022 0.6318 0.0000
vt 0.5886 0.8586 0.0000
vt 0.6022 0.8450 0.0000
# 32 texture coords

usemtl none
s off
f 1/1/1 2/2/1 3/3/1 4/4/1
f 4/1/2 3/2/2 5/3/2 6/4/2
f 6/1/3 5/2/3 7/3/3 8/4/3
f 8/1/4 7/2/4 2/3/4 1/4/4
f 9/5/4 10/6/4 11/7/4 12/8/4
f 13/5/1 9/6/1 12/7/1 14/8/1
f 15/5/2 13/6/2 14/7/2 16/8/2
f 10/5/3 15/6/3 16/7/3 11/8/3
f 17/9/1 18/10/1 19/11/1 20/12/1
f 21/9/2 17/10/2 20/11/2 22/12/2
f 23/9/3 21/10/3 22/11/3 24/12/3
f 24/13/5 22/14/5 20/15/5 19/16/5
f 24/11/4 19/12/4 18/9/4 23/10/4
f 15/17/6 10/18/6 3/19/6 2/20/6
f 13/21/6 15/17/6 2/20/6 7/22/6
f 9/23/6 13/21/6 7/22/6 5/24/6
f 10/18/6 9/23/6 5/24/6 3/19/6
f 18/25/6 17/26/6 14/27/6 12/28/6
f 23/29/6 18/25/6 12/28/6 11/30/6
f 21/31/6 23/29/6 11/30/6 16/32/6
f 17/26/6 21/31/6 16/32/6 14/27/6
f 25/5/4 26/6/4 27/7/4 28/8/4
f 29/5/1 25/6/1 28/7/1 30/8/1
f 31/5/2 29/6/2 30/7/2 32/8/2
f 26/5/3 31/6/3 32/7/3 27/8/3
f 27/5/6 32/5/6 30/5/6 28/5/6
# 26 polygons




















