# Blender v2.76 (sub 0) OBJ File: ''
# www.blender.org
mtllib flag.mtl
o Flag
v 0.028002 2.746445 0.000000
v 2.028002 2.746445 0.000000
v 0.028002 4.079778 -0.000000
v 2.028002 4.079778 -0.000000
vt 0.565500 0.566515
vt 0.997430 0.566515
vt 0.997430 0.998446
vt 0.565500 0.998446
vn 0.000000 0.000000 1.000000
usemtl None
f 1/1/1 2/2/1 4/3/1 3/4/1
o Pole
v -0.050000 0.099999 0.050000
v -0.050000 4.100000 0.050000
v -0.050000 0.099999 -0.050000
v -0.050000 4.100000 -0.050000
v 0.050000 0.099999 0.050000
v 0.050000 4.100000 0.050000
v 0.050000 0.099999 -0.050000
v 0.050000 4.100000 -0.050000
v -0.150000 -0.000000 0.150000
v -0.150000 0.100000 0.150000
v -0.150000 -0.000000 -0.150000
v -0.150000 0.100000 -0.150000
v 0.150000 -0.000000 0.150000
v 0.150000 0.100000 0.150000
v 0.150000 -0.000000 -0.150000
v 0.150000 0.100000 -0.150000
vt 0.016810 0.369784
vt 0.030926 0.369784
vt 0.030926 0.980653
vt 0.016810 0.980653
vt 0.016422 0.985438
vt 0.030538 0.985438
vt 0.030538 0.999339
vt 0.016422 0.999339
vt 0.109322 0.938177
vt 0.161729 0.938177
vt 0.161729 0.952402
vt 0.109322 0.952402
vt 0.110678 0.955884
vt 0.152796 0.955884
vt 0.152796 0.998002
vt 0.110678 0.998002
vt 0.109504 0.954710
vt 0.153970 0.954710
vt 0.153970 0.999176
vt 0.109504 0.999176
vn -1.000000 0.000000 0.000000
vn 0.000000 0.000000 -1.000000
vn 1.000000 0.000000 0.000000
vn 0.000000 0.000000 1.000000
vn 0.000000 -1.000000 0.000000
vn 0.000000 1.000000 0.000000
usemtl None
f 6/5/2 8/6/2 7/7/2 5/8/2
f 8/5/3 12/6/3 11/7/3 7/8/3
f 12/5/4 10/6/4 9/7/4 11/8/4
f 10/5/5 6/6/5 5/7/5 9/8/5
f 5/5/6 7/6/6 11/7/6 9/8/6
f 10/9/7 12/10/7 8/11/7 6/12/7
f 14/13/2 16/14/2 15/15/2 13/16/2
f 16/13/3 20/14/3 19/15/3 15/16/3
f 20/13/4 18/14/4 17/15/4 19/16/4
f 18/13/5 14/14/5 13/15/5 17/16/5
f 13/17/6 15/18/6 19/19/6 17/20/6
f 18/21/7 20/22/7 16/23/7 14/24/7
