o main
v 0.00000 0.00000 0.00000
v 1.00000 0.00000 0.00000
v 1.00000 0.00000 1.00000
v 0.00000 0.00000 1.00000
v 0.00000 1.00000 0.00000
v 1.00000 1.00000 0.00000
v 1.00000 1.00000 1.00000
v 0.00000 1.00000 1.00000
v 0.00000 0.97000 0.10000
v 0.90000 0.97000 0.10000
v 0.90000 0.97000 1.00000
v 0.00000 0.97000 1.00000
v 0.00000 0.90000 0.10000
v 0.90000 0.90000 0.10000
v 0.90000 0.90000 1.00000
v 0.00000 0.90000 1.00000

vn 0.00000 -1.00000 0.00000
vn 0.00000 1.00000 0.00000
vn 0.00000 0.00000 -1.00000
vn 0.00000 0.00000 1.00000
vn -1.00000 0.00000 0.00000
vn 1.00000 0.00000 0.00000
vn 0.00000 0.10000 0.03000
vn -0.03000 0.10000 0.00000

f 1//1 2//1 3//1 4//1
f 2//3 1//3 5//3 6//3
f 1//5 4//5 16//5 13//5
f 4//4 3//4 15//4 16//4
f 3//6 2//6 6//6 7//6
f 6//7 5//7 9//7 10//7
f 7//8 6//8 10//8 11//8
f 10//4 9//4 13//4 14//4
f 14//2 13//2 16//2 15//2
f 11//5 10//5 14//5 15//5
