# 3ds Max Wavefront OBJ Exporter v0.97b - (c)2007 guruware
# File Created: 08.05.2015 20:43:33

#
# object dock
#

v  -20.0000 -20.0000 20.0000
v  -20.0000 -20.0000 -20.0000
v  20.0000 -20.0000 -20.0000
v  20.0000 -20.0000 20.0000
v  -20.0000 20.0000 20.0000
v  20.0000 20.0000 20.0000
v  20.0000 20.0000 -4.3750
v  -20.0000 20.0000 -4.3750
v  20.0000 4.3750 20.0000
v  -20.0000 4.3750 20.0000
v  20.0000 4.3750 -20.0000
v  18.1250 4.3750 16.8750
v  -18.1250 4.3750 16.8750
v  -18.1250 15.0000 16.8750
v  18.1250 15.0000 16.8750
v  -20.0000 4.3750 -20.0000
v  -18.1250 -18.1250 -20.0000
v  18.1250 -18.1250 -20.0000
v  18.1250 15.0000 -9.3750
v  -18.1250 15.0000 -9.3750
v  18.1250 4.3750 -20.0000
v  -18.1250 4.3750 -20.0000
v  -18.1250 -18.1250 16.8750
v  18.1250 -18.1250 16.8750
v  11.2500 15.0000 -9.3750
v  18.1250 11.2500 -13.1250
v  11.9118 11.2500 -13.1250
v  18.1250 4.3750 -6.2500
v  13.1250 4.3750 16.8750
v  13.1250 4.3750 -6.2500
v  11.9118 11.2500 16.8750
v  11.2500 15.0000 16.8750
v  17.5000 -18.1250 -20.0000
v  11.2500 -18.1250 -20.0000
v  11.2500 -16.8750 -20.0000
v  17.5000 -8.1250 -20.0000
v  -11.2500 -18.1250 -20.0000
v  -11.2500 -16.8750 -20.0000
v  -17.5000 -18.1250 -20.0000
v  -17.5000 -8.1250 -20.0000
v  -16.2500 -6.2500 9.3750
v  -10.0000 -15.0000 9.3750
v  -10.0000 -15.0000 -1.8750
v  -16.2500 -6.2500 -1.8750
v  10.0000 -15.0000 9.3750
v  10.0000 -15.0000 -1.8750
v  16.2500 -6.2500 9.3750
v  16.2500 -6.2500 -1.8750
v  -11.2500 -16.8750 -6.2500
v  -17.5000 -8.1250 -6.2500
v  11.2500 -16.8750 -6.2500
v  17.5000 -8.1250 -6.2500
v  18.1250 -8.1250 -20.0000
v  -18.1250 -8.1250 -20.0000
v  -18.1250 -6.2500 -1.8750
v  -18.1250 -6.2500 9.3750
v  -18.1250 -8.1250 -6.2500
v  18.1250 -6.2500 9.3750
v  18.1250 -6.2500 -1.8750
v  18.1250 -8.1250 -6.2500
v  18.1250 -3.1250 9.3750
v  -18.1250 -3.1250 9.3750
v  18.1250 -15.0000 9.3750
v  -18.1250 -15.0000 9.3750
v  6.2500 -16.8750 -20.0000
v  -6.2500 -16.8750 -20.0000
v  -6.2500 -15.0000 -18.1250
v  6.2500 -15.0000 -18.1250
v  -6.2500 -16.8750 -6.2500
v  -6.2500 -15.0000 -1.8750
v  6.2500 -15.0000 -1.8750
v  6.2500 -16.8750 -6.2500
v  6.8750 -3.1250 9.3750
v  -6.8750 -3.1250 9.3750
v  -6.8750 6.8750 9.3750
v  6.8750 6.8750 9.3750
v  -6.8750 4.3750 16.8750
v  -6.8750 6.8750 16.8750
v  6.8750 6.8750 16.8750
v  6.8750 4.3750 16.8750
v  -11.2500 15.0000 -9.3750
v  -11.9117 11.2500 -13.1250
v  -18.1250 11.2500 -13.1250
v  -18.1250 4.3750 -6.2500
v  -13.1250 4.3750 -6.2500
v  -13.1250 4.3750 16.8750
v  -11.9118 11.2500 16.8750
v  -11.2500 15.0000 16.8750
# 88 vertices

vn 0.0000 -1.0000 -0.0000
vn 0.0000 1.0000 -0.0000
vn 0.0000 0.0000 1.0000
vn 1.0000 -0.0000 0.0000
vn 1.0000 0.0000 0.0000
vn 0.0000 0.0000 -1.0000
vn -1.0000 0.0000 -0.0000
vn -1.0000 -0.0000 -0.0000
vn -0.0000 0.0000 -1.0000
vn 0.0000 0.7071 -0.7071
vn 0.0000 -0.0000 -1.0000
vn -0.0000 0.7071 -0.7071
vn -0.0000 -1.0000 -0.0000
vn -0.9848 -0.1738 0.0000
vn -0.9848 -0.1738 -0.0000
vn 0.0000 -0.7071 -0.7071
vn 0.8137 0.5812 0.0000
vn -0.8137 0.5812 -0.0000
vn 0.7331 0.5237 -0.4339
vn 0.0000 0.9191 -0.3939
vn -0.7331 0.5237 -0.4339
vn -0.0000 1.0000 -0.0000
vn -0.0000 1.0000 0.0000
vn 1.0000 0.0000 -0.0000
vn 0.9848 -0.1738 0.0000
# 25 vertex normals

vt 1.0000 0.3869 0.3413
vt 1.0000 0.7679 0.3413
vt 0.6667 0.7679 0.3413
vt 0.6667 0.3869 0.3413
vt 0.3333 0.6429 0.6587
vt 0.0000 0.6429 0.6587
vt 0.0000 0.4107 0.6587
vt 0.3333 0.4107 0.6587
vt 0.6667 0.0000 0.3413
vt 1.0000 0.0000 0.3413
vt 1.0000 0.2321 0.3413
vt 0.6667 0.2321 0.3413
vt 1.0000 0.3810 0.3413
vt 0.6667 0.3810 0.3413
vt 0.6667 0.0000 0.6587
vt 0.3333 0.0000 0.6587
vt 0.3333 0.2321 0.6587
vt 0.6667 0.2321 0.6587
vt 0.4635 0.3810 0.6587
vt 0.6667 0.3810 0.6587
vt 0.3438 0.5774 0.3661
vt 0.6458 0.5774 0.3661
vt 0.6458 0.6786 0.3661
vt 0.3438 0.6786 0.3661
vt 0.3333 0.0000 0.3413
vt 0.3333 0.2321 0.3413
vt 0.4635 0.3810 0.3413
vt -0.0000 0.0000 0.6587
vt 0.3177 0.0179 0.6587
vt 0.0156 0.0179 0.6587
vt 0.0156 0.3631 0.6190
vt 0.3177 0.3631 0.6190
vt -0.0000 0.2321 0.6587
vt 0.0156 0.2321 0.6587
vt 0.0000 0.2619 0.5347
vt 0.0156 0.2619 0.5347
vt 0.3177 0.2321 0.6587
vt 0.3333 0.2619 0.5347
vt 0.3177 0.2619 0.5347
vt 0.6510 0.6845 0.3562
vt 0.6510 0.8988 0.3562
vt 0.9583 0.8988 0.3562
vt 0.9583 0.6845 0.3562
vt 0.6510 0.8988 0.6438
vt 0.6510 0.6845 0.6438
vt 0.9583 0.6845 0.6438
vt 0.9583 0.8988 0.6438
vt 0.7396 1.0000 0.3562
vt 0.9583 1.0000 0.3562
vt 0.6458 0.9286 0.6190
vt 0.3438 0.9286 0.6190
vt 0.3438 0.6786 0.6190
vt 0.6458 0.6786 0.6190
vt 0.7396 1.0000 0.6438
vt 0.9583 1.0000 0.6438
vt 0.2604 0.3631 0.4976
vt 0.3177 0.3631 0.4976
vt 0.3177 0.3274 0.5269
vt 0.2656 0.3274 0.5269
vt 0.2083 0.2143 0.5347
vt 0.0156 0.2143 0.5347
vt 0.2083 0.2619 0.5347
vt 0.2656 0.3274 0.5945
vt 0.0156 0.3274 0.5955
vt 0.0156 0.3631 0.5893
vt 0.2344 0.3631 0.5893
vt 0.2083 0.2619 0.6042
vt 0.0156 0.2619 0.6042
vt 0.3177 0.2619 0.4731
vt 0.2760 0.2619 0.4731
vt 0.0208 0.0179 0.6587
vt 0.0729 0.0179 0.6587
vt 0.0729 0.0298 0.6587
vt 0.0208 0.1131 0.6587
vt 0.2604 0.0179 0.6587
vt 0.2604 0.0298 0.6587
vt 0.3125 0.0179 0.6587
vt 0.3125 0.1131 0.6587
vt 0.0573 0.9643 0.3710
vt 0.1302 0.9643 0.4206
vt 0.1302 0.8571 0.4206
vt 0.0573 0.8571 0.3710
vt 0.3073 0.9643 0.3810
vt 0.1406 0.9643 0.3810
vt 0.1406 0.8571 0.3810
vt 0.3073 0.8571 0.3810
vt 0.1302 0.9643 0.5794
vt 0.0573 0.9643 0.6290
vt 0.0573 0.8571 0.6290
vt 0.1302 0.8571 0.5794
vt 0.1302 0.8155 0.4107
vt 0.0573 0.8155 0.3611
vt 0.1302 0.8155 0.3661
vt 0.3177 0.8155 0.3661
vt 0.0573 0.8155 0.6389
vt 0.1302 0.8155 0.5893
vt 0.0156 0.1131 0.6587
vt 0.3177 0.1131 0.6587
vt 0.0573 0.9643 0.4504
vt 0.0573 0.8571 0.4504
vt 0.0417 0.8571 0.4504
vt 0.0417 0.9643 0.4504
vt 0.0469 0.8155 0.4355
vt 0.0417 0.8155 0.4355
vt 0.0573 0.6845 0.6389
vt 0.1302 0.6845 0.5893
vt 0.1302 0.6845 0.3661
vt 0.3177 0.6845 0.3661
vt 0.1302 0.6845 0.4107
vt 0.0573 0.6845 0.3611
vt 0.0417 0.6845 0.4355
vt 0.0469 0.6845 0.4355
vt 0.3438 0.5774 0.5347
vt 0.3438 0.5060 0.4752
vt 0.6458 0.5060 0.4752
vt 0.6458 0.5774 0.5347
vt 0.3438 0.5060 0.4256
vt 0.3438 0.3929 0.4256
vt 0.6458 0.3929 0.4256
vt 0.6458 0.5060 0.4256
vt 0.1719 0.6548 0.3661
vt 0.2760 0.6548 0.3661
vt 0.2760 0.6845 0.3810
vt 0.1719 0.6845 0.3810
vt 0.0573 0.6548 0.0000
vt 0.0208 0.6726 0.0000
vt 0.1563 0.6726 0.0000
vt 0.1719 0.6548 0.0000
vt 0.2760 0.8393 0.3810
vt 0.1719 0.8393 0.3810
vt 0.1094 0.0476 0.4256
vt 0.2240 0.0476 0.4256
vt 0.2240 0.1429 0.4256
vt 0.1094 0.1429 0.4256
vt 0.0885 0.2143 0.4454
vt 0.1094 0.2143 0.4454
vt 0.1094 0.1429 0.4454
vt 0.0260 0.1429 0.4454
vt 0.1094 0.2143 0.5546
vt 0.2240 0.2143 0.5546
vt 0.2240 0.1429 0.5546
vt 0.1094 0.1429 0.5546
vt 0.0885 0.2143 0.5546
vt 0.0260 0.1429 0.5546
vt 0.0156 0.2619 0.3966
vt 0.2083 0.2619 0.3966
vt 0.2656 0.3274 0.4062
vt 0.0156 0.3274 0.4055
vt 0.2344 0.3631 0.4114
vt 0.0156 0.3631 0.4114
# 150 texture coords

g dock
f 1/1/1 2/2/1 3/3/1 4/4/1 
f 5/5/2 6/6/2 7/7/2 8/8/2 
f 1/9/3 4/10/3 9/11/3 10/12/3 
f 10/12/3 9/11/3 6/13/3 5/14/3 
f 4/15/4 3/16/4 11/17/4 9/18/4 
f 9/18/5 11/17/5 7/19/5 6/20/5 
f 12/21/6 13/22/6 14/23/6 15/24/6 
f 2/25/7 1/9/7 10/12/7 16/26/7 
f 16/26/8 10/12/8 5/14/8 8/27/8 
f 3/28/9 2/16/9 17/29/9 18/30/9 
f 8/8/10 7/7/10 19/31/10 20/32/10 
f 11/33/11 3/28/11 18/30/11 21/34/11 
f 7/7/10 11/35/10 21/36/10 19/31/10 
f 2/16/11 16/17/11 22/37/11 17/29/11 
f 16/38/12 8/8/12 20/32/12 22/39/12 
f 17/40/5 22/41/5 13/42/5 23/43/5 
f 21/44/8 18/45/8 24/46/8 12/47/8 
f 22/41/5 20/48/5 14/49/5 13/42/5 
f 20/50/1 19/51/1 15/52/1 14/53/1 
f 19/54/7 21/44/7 12/47/7 15/55/7 
f 25/56/12 19/57/12 26/58/12 27/59/12 
f 28/60/13 12/61/13 29/36/13 30/62/13 
f 27/63/14 31/64/14 32/65/14 25/66/14 
f 31/64/15 27/63/15 30/67/15 29/68/15 
f 27/59/16 26/58/16 28/69/16 30/70/16 
f 33/71/6 34/72/6 35/73/6 36/74/6 
f 34/72/6 37/75/6 38/76/6 35/73/6 
f 37/75/6 39/77/6 40/78/6 38/76/6 
f 41/79/17 42/80/17 43/81/17 44/82/17 
f 42/83/2 45/84/2 46/85/2 43/86/2 
f 45/87/18 47/88/18 48/89/18 46/90/18 
f 44/82/19 43/81/19 49/91/19 50/92/19 
f 43/86/20 46/85/20 51/93/20 49/94/20 
f 46/90/21 48/89/21 52/95/21 51/96/21 
f 33/71/9 36/74/9 53/97/9 18/30/9 
f 40/78/9 39/77/9 17/29/9 54/98/9 
f 41/99/22 44/100/22 55/101/22 56/102/22 
f 44/100/20 50/103/20 57/104/20 55/101/20 
f 48/100/22 47/99/22 58/102/22 59/101/22 
f 52/103/20 48/100/20 59/101/20 60/104/20 
f 51/96/18 52/95/18 36/105/18 35/106/18 
f 49/94/23 51/93/23 35/107/23 38/108/23 
f 50/92/17 49/91/17 38/109/17 40/110/17 
f 52/103/2 60/104/2 53/111/2 36/112/2 
f 57/104/2 50/103/2 40/112/2 54/111/2 
f 12/113/12 61/114/12 62/115/10 13/116/10 
f 61/117/6 63/118/6 64/119/6 62/120/6 
f 65/121/10 66/122/10 67/123/10 68/124/10 
f 69/125/7 70/126/7 67/127/7 66/128/7 
f 70/129/2 71/130/2 68/124/2 67/123/2 
f 71/126/4 72/125/4 65/128/4 68/127/4 
f 73/131/6 74/132/6 75/133/6 76/134/6 
f 77/135/8 78/136/8 75/137/8 74/138/7 
f 78/139/2 79/140/2 76/141/2 75/142/2 
f 79/139/5 80/143/24 73/144/4 76/142/4 
f 20/57/10 81/56/10 82/59/10 83/58/10 
f 13/61/1 84/60/1 85/62/1 86/36/1 
f 86/145/25 85/146/25 82/147/25 87/148/25 
f 81/149/25 88/150/25 87/148/25 82/147/25 
f 83/58/16 82/59/16 85/70/16 84/69/16 
# 60 polygons

