# Blender v2.73 (sub 0) OBJ File: 'teleporter.blend'
# www.blender.org
o TopMidxMidz
v -0.253971 4.365750 0.253971
v -0.253971 4.365750 -0.253971
v 0.253971 4.365750 -0.253971
v 0.253971 4.365750 0.253971
v -0.253971 4.883273 0.253971
v -0.253971 4.883273 -0.253971
v 0.253971 4.883273 -0.253971
v 0.253971 4.883273 0.253971
vt 0.964662 0.536977
vt 0.964662 0.966340
vt 0.535299 0.966340
vt 1.000000 0.000000
vt 1.000000 1.000000
vt 0.000000 1.000000
vt 0.389387 0.610613
vt 0.389387 0.904783
vt 0.095217 0.904783
vt 0.535299 0.536977
vt 0.000000 0.000000
vt 0.095217 0.610613
vn -1.000000 0.000000 0.000000
vn 0.000000 0.000000 -1.000000
vn 1.000000 0.000000 0.000000
vn 0.000000 0.000000 1.000000
vn 0.000000 -1.000000 0.000000
vn 0.000000 1.000000 0.000000
s off
f 6/1/1 2/2/1 1/3/1
f 7/1/2 3/2/2 2/3/2
f 8/1/3 4/2/3 3/3/3
f 5/1/4 1/2/4 4/3/4
f 2/4/5 3/5/5 4/6/5
f 7/7/6 6/8/6 5/9/6
f 5/10/1 6/1/1 1/3/1
f 6/10/2 7/1/2 2/3/2
f 7/10/3 8/1/3 3/3/3
f 8/10/4 5/1/4 4/3/4
f 1/11/5 2/4/5 4/6/5
f 8/12/6 7/7/6 5/9/6
o Base
v -0.382683 0.451758 -0.923880
v 0.382684 0.451758 -0.923880
v 0.923880 0.451758 -0.382683
v 0.923880 0.451758 0.382684
v 0.382683 0.451758 0.923880
v -0.382684 0.451758 0.923879
v -0.923880 0.451758 0.382683
v -0.923880 0.451758 -0.382683
v -0.494347 0.206533 -1.193459
v 0.494347 0.206533 -1.193459
v 1.193459 0.206533 -0.494347
v 1.193459 0.206533 0.494347
v 0.494347 0.206533 1.193459
v -0.494347 0.206533 1.193459
v -1.193459 0.206533 0.494347
v -1.193459 0.206533 -0.494347
v -0.684079 0.005799 -1.651513
v -0.684079 0.027868 -1.651513
v 0.684079 0.005799 -1.651513
v 0.684079 0.027868 -1.651513
v 1.651513 0.005799 -0.684079
v 1.651513 0.027868 -0.684079
v 1.651513 0.005799 0.684079
v 1.651513 0.027868 0.684079
v 0.684079 0.005799 1.651513
v 0.684079 0.027868 1.651513
v -0.684079 0.005799 1.651513
v -0.684079 0.027868 1.651513
v -1.651513 0.005799 0.684079
v -1.651513 0.027868 0.684079
v -1.651513 0.005799 -0.684079
v -1.651513 0.027868 -0.684079
vt 0.486010 0.516550
vt 0.486010 0.985210
vt 0.017350 0.985210
vt 0.249821 0.496998
vt 0.424819 0.424512
vt 0.249821 0.002030
vt 0.017350 0.516550
vt 0.982079 0.519681
vt 0.982079 0.992319
vt 0.509441 0.992319
vt 0.509441 0.519681
vt 0.978873 0.525447
vt 0.978873 0.986553
vt 0.517767 0.986553
vt 0.748320 0.986553
vt 0.978873 0.756000
vt 0.748320 0.525447
vt 0.002337 0.249514
vt 0.074824 0.424512
vt 0.074824 0.074517
vt 0.424819 0.074517
vt 0.497306 0.249514
vt 0.517767 0.525447
vt 0.517767 0.756000
vt 0.585295 0.919025
vt 0.585295 0.592975
vt 0.911345 0.592975
vt 0.911345 0.919025
vn -0.475800 0.739700 0.475800
vn 0.672900 0.739700 0.000000
vn -0.475800 0.739700 -0.475800
vn 0.000000 1.000000 0.000000
vn 0.000000 0.739700 -0.672900
vn -0.000000 0.739700 0.672900
vn -0.257000 0.931600 0.257000
vn 0.363400 0.931600 0.000000
vn -0.257000 0.931600 -0.257000
vn 0.000000 0.931600 -0.363400
vn 0.475800 0.739700 0.475800
vn -0.672900 0.739700 0.000000
vn 0.475800 0.739700 -0.475800
vn 0.000000 0.000000 -1.000000
vn 0.707100 0.000000 -0.707100
vn 1.000000 0.000000 0.000000
vn 0.707100 0.000000 0.707100
vn -0.000000 0.000000 1.000000
vn -0.707100 0.000000 0.707100
vn -0.707100 0.000000 -0.707100
vn -1.000000 0.000000 0.000000
vn 0.257000 0.931600 0.257000
vn -0.363400 0.931600 0.000000
vn 0.257000 0.931600 -0.257000
vn 0.000000 -1.000000 0.000000
vn -0.000000 0.931600 0.363400
s off
f 15/13/7 23/14/7 22/15/7
f 12/13/8 20/14/8 19/15/8
f 9/13/9 17/14/9 24/15/9
f 10/16/10 9/17/10 14/18/10
f 9/19/11 10/13/11 18/14/11
f 14/13/12 22/14/12 21/15/12
f 23/20/13 38/21/13 36/22/13
f 20/20/14 32/21/14 30/22/14
f 17/20/15 26/21/15 40/22/15
f 17/23/16 18/20/16 28/21/16
f 12/19/17 13/13/17 21/14/17
f 16/13/18 24/14/18 23/15/18
f 11/13/19 19/14/19 18/15/19
f 26/24/20 28/25/20 27/26/20
f 28/24/21 30/25/21 29/26/21
f 30/24/22 32/25/22 31/26/22
f 32/24/23 34/25/23 33/26/23
f 34/24/24 36/25/24 35/26/24
f 36/24/25 38/25/25 37/26/25
f 40/24/26 26/25/26 25/26/26
f 38/24/27 40/25/27 39/26/27
f 21/20/28 34/21/28 32/22/28
f 24/20/29 40/21/29 38/22/29
f 19/20/30 30/21/30 28/22/30
f 25/27/31 29/28/31 33/29/31
f 22/20/32 36/21/32 34/22/32
f 14/19/7 15/13/7 22/15/7
f 11/19/8 12/13/8 19/15/8
f 16/19/9 9/13/9 24/15/9
f 12/30/10 11/31/10 10/16/10
f 14/18/10 13/32/10 12/30/10
f 9/17/10 15/33/10 14/18/10
f 15/33/10 9/17/10 16/34/10
f 14/18/10 12/30/10 10/16/10
f 17/15/11 9/19/11 18/14/11
f 13/19/12 14/13/12 21/15/12
f 22/23/13 23/20/13 36/22/13
f 19/23/14 20/20/14 30/22/14
f 24/23/15 17/20/15 40/22/15
f 26/22/16 17/23/16 28/21/16
f 20/15/17 12/19/17 21/14/17
f 15/19/18 16/13/18 23/15/18
f 10/19/19 11/13/19 18/15/19
f 25/35/20 26/24/20 27/26/20
f 27/35/21 28/24/21 29/26/21
f 29/35/22 30/24/22 31/26/22
f 31/35/23 32/24/23 33/26/23
f 33/35/24 34/24/24 35/26/24
f 35/35/25 36/24/25 37/26/25
f 39/35/26 40/24/26 25/26/26
f 37/35/27 38/24/27 39/26/27
f 20/23/28 21/20/28 32/22/28
f 23/23/29 24/20/29 38/22/29
f 18/23/30 19/20/30 28/22/30
f 37/36/31 39/37/31 25/27/31
f 33/29/31 35/38/31 37/36/31
f 29/28/31 31/39/31 33/29/31
f 25/27/31 27/40/31 29/28/31
f 33/29/31 37/36/31 25/27/31
f 21/23/32 22/20/32 34/22/32
o Top
v -0.382683 4.498791 0.923880
v -0.382683 3.926876 0.923880
v 0.382684 4.498791 0.923879
v 0.382684 3.926876 0.923880
v 0.923880 4.498790 0.382683
v 0.923880 3.926876 0.382683
v 0.923880 4.498790 -0.382684
v 0.923880 3.926876 -0.382683
v 0.382683 4.498790 -0.923880
v 0.382683 3.926876 -0.923880
v -0.382684 4.498790 -0.923880
v -0.382684 3.926876 -0.923879
v -0.923880 4.498790 -0.382683
v -0.923880 3.926876 -0.382683
v -0.923880 4.498791 0.382683
v -0.923880 3.926876 0.382683
v -0.494347 4.791005 1.193459
v -0.494347 4.108981 1.193459
v 0.494347 4.791005 1.193459
v 0.494347 4.108981 1.193459
v 1.193459 4.791005 0.494347
v 1.193459 4.108981 0.494347
v 1.193459 4.791005 -0.494347
v 1.193459 4.108981 -0.494347
v 0.494347 4.791005 -1.193459
v 0.494347 4.108980 -1.193459
v -0.494347 4.791005 -1.193459
v -0.494347 4.108981 -1.193459
v -1.193459 4.791005 -0.494347
v -1.193459 4.108981 -0.494347
v -1.193459 4.791005 0.494347
v -1.193459 4.108981 0.494347
v -0.684079 4.309715 1.651513
v -0.684079 4.287646 1.651513
v 0.684079 4.309715 1.651513
v 0.684079 4.287646 1.651513
v 1.651513 4.309715 0.684079
v 1.651513 4.287646 0.684079
v 1.651513 4.309715 -0.684079
v 1.651513 4.287646 -0.684079
v 0.684079 4.309715 -1.651513
v 0.684079 4.287646 -1.651513
v -0.684079 4.309715 -1.651513
v -0.684079 4.287646 -1.651513
v -1.651513 4.309715 -0.684079
v -1.651513 4.287646 -0.684079
v -1.651513 4.309715 0.684079
v -1.651513 4.287646 0.684079
v 0.986090 3.920346 0.408452
v -0.986090 3.920346 0.408452
v 0.408452 3.920346 0.986090
v -0.408452 3.920346 0.986090
v -0.408452 3.920346 -0.986090
v 0.408452 3.920346 -0.986090
v 0.986090 3.920346 -0.408452
v -0.986090 3.920346 -0.408452
v -0.382683 4.112855 0.923880
v 0.382684 4.112855 0.923880
v 0.923880 4.112855 0.382683
v 0.923880 4.112854 -0.382684
v 0.382683 4.112854 -0.923880
v -0.382684 4.112854 -0.923879
v -0.923880 4.112855 -0.382683
v -0.923880 4.112855 0.382683
vt 0.977547 0.528053
vt 0.977547 0.990347
vt 0.515253 0.990347
vt 0.528715 0.515915
vt 0.983285 0.515915
vt 0.983285 0.970485
vt 0.515253 0.528053
vt 0.528715 0.970485
vt 0.495405 -0.001005
vt 0.495405 0.495405
vt -0.001005 0.495405
vt 0.750240 0.952574
vt 0.892226 0.893762
vt 0.750240 0.550978
vt 0.008273 0.517073
vt 0.486127 0.517073
vt 0.486127 0.994927
vt 0.008273 0.994927
vt 0.982127 0.520273
vt 0.982127 0.991727
vt 0.510673 0.991727
vt 0.010944 0.510144
vt 0.496256 0.510144
vt 0.496256 0.995456
vt 0.010944 0.995456
vt 0.247200 0.495405
vt 0.422707 0.422707
vt 0.247200 -0.001005
vt -0.001005 -0.001005
vt 0.608254 0.893762
vt 0.608254 0.609790
vt 0.549442 0.751776
vt 0.951038 0.751776
vt 0.892226 0.609790
vt 0.510673 0.520273
vt -0.001005 0.247200
vt 0.071693 0.422707
vt 0.071693 0.071693
vt 0.495405 0.247200
vt 0.422707 0.071693
vn -0.519700 0.678100 -0.519700
vn -0.475800 -0.739700 -0.475800
vn 0.735000 0.678100 -0.000000
vn 0.672900 -0.739700 0.000000
vn -0.519700 0.678100 0.519700
vn -0.475800 -0.739700 0.475800
vn 0.707100 -0.000000 -0.707100
vn 0.000000 -0.739700 0.672900
vn -0.000000 -0.739700 -0.672900
vn -0.000000 1.000000 -0.000000
vn 0.000000 0.689400 -0.724400
vn 0.512200 0.689400 0.512200
vn -0.257000 -0.931600 -0.257000
vn -0.724400 0.689400 0.000000
vn 0.363400 -0.931600 -0.000000
vn 0.512200 0.689400 -0.512200
vn -0.257000 -0.931600 0.257000
vn 0.000000 -0.931600 0.363400
vn 0.000000 0.678100 0.735000
vn 0.000000 0.678100 -0.735000
vn 0.475800 -0.739700 -0.475800
vn 0.519700 0.678100 -0.519700
vn -0.672900 -0.739700 -0.000000
vn -0.735000 0.678100 -0.000000
vn 0.475800 -0.739700 0.475800
vn 0.519700 0.678100 0.519700
vn 0.000000 0.000000 1.000000
vn 0.707100 0.000000 0.707100
vn 1.000000 0.000000 -0.000000
vn -0.000000 0.000000 -1.000000
vn -0.707100 0.000000 -0.707100
vn -0.707100 0.000000 0.707100
vn -1.000000 0.000000 -0.000000
vn 0.000000 0.689400 0.724400
vn 0.257000 -0.931600 -0.257000
vn -0.512200 0.689400 0.512200
vn -0.363400 -0.931600 0.000000
vn 0.724400 0.689400 -0.000000
vn 0.257000 -0.931600 0.257000
vn -0.512200 0.689400 -0.512200
vn -0.000000 -0.931600 -0.363400
vn 0.073800 -0.994500 0.073800
vn -0.104400 -0.994500 0.000000
vn 0.073800 -0.994500 -0.073800
vn 0.000000 -0.994500 -0.104400
vn 0.000000 -0.994500 0.104400
vn -0.073800 -0.994500 0.073800
vn 0.104400 -0.994500 0.000000
vn -0.073800 -0.994500 -0.073800
vn 0.000000 -1.000000 0.000000
s off
f 43/41/33 59/42/33 61/43/33
f 93/44/34 96/45/34 70/46/34
f 55/47/35 53/41/35 69/42/35
f 89/44/36 95/45/36 64/46/36
f 49/47/37 47/41/37 63/42/37
f 92/45/38 58/46/38 72/48/38
f 56/49/39 104/50/39 97/51/39
f 91/45/40 60/46/40 58/48/40
f 93/45/41 68/46/41 66/48/41
f 41/52/42 43/53/42 49/54/42
f 67/55/43 65/56/43 81/57/43
f 61/55/44 59/56/44 75/57/44
f 70/45/45 86/46/45 84/48/45
f 71/55/46 69/56/46 85/57/46
f 64/45/47 80/46/47 78/48/47
f 63/56/48 79/57/48 81/58/48
f 58/45/49 74/46/49 88/48/49
f 60/45/50 76/46/50 74/48/50
f 49/41/51 65/42/51 67/43/51
f 41/41/52 57/42/52 59/43/52
f 94/45/53 66/46/53 64/48/53
f 41/47/54 55/41/54 71/42/54
f 90/45/55 72/46/55 70/48/55
f 45/41/56 61/42/56 63/43/56
f 89/45/57 62/46/57 60/48/57
f 51/41/58 67/42/58 69/43/58
f 74/59/59 76/60/59 75/61/59
f 76/59/60 78/60/60 77/61/60
f 78/59/61 80/60/61 79/61/61
f 80/59/39 82/60/39 81/61/39
f 82/59/62 84/60/62 83/61/62
f 84/59/63 86/60/63 85/61/63
f 88/59/64 74/60/64 73/61/64
f 86/59/65 88/60/65 87/61/65
f 59/55/66 57/56/66 73/57/66
f 66/45/67 82/46/67 80/48/67
f 57/55/68 71/56/68 87/57/68
f 72/45/69 88/46/69 86/48/69
f 61/56/70 77/57/70 79/58/70
f 62/45/71 78/46/71 76/48/71
f 67/56/72 83/57/72 85/58/72
f 68/45/73 84/46/73 82/48/73
f 52/62/74 54/63/74 96/64/74
f 48/63/75 95/64/75 89/65/75
f 56/62/76 42/63/76 92/64/76
f 44/63/77 91/64/77 92/65/77
f 52/63/78 93/64/78 94/65/78
f 48/62/79 50/63/79 94/64/79
f 56/63/80 90/64/80 96/65/80
f 44/62/81 46/63/81 89/64/81
f 98/66/82 97/67/82 102/68/82
f 56/69/61 54/49/61 103/50/61
f 52/49/60 102/50/60 103/51/60
f 50/49/59 101/50/59 102/51/59
f 48/49/64 100/50/64 101/51/64
f 46/49/65 99/50/65 100/51/65
f 44/49/63 98/50/63 99/51/63
f 42/49/62 97/50/62 98/51/62
f 45/47/33 43/41/33 61/43/33
f 68/48/34 93/44/34 70/46/34
f 71/43/35 55/47/35 69/42/35
f 62/48/36 89/44/36 64/46/36
f 65/43/37 49/47/37 63/42/37
f 90/44/38 92/45/38 72/48/38
f 42/69/39 56/49/39 97/51/39
f 92/44/40 91/45/40 58/48/40
f 94/44/41 93/45/41 66/48/41
f 49/54/42 55/70/42 41/52/42
f 49/54/42 51/71/42 53/72/42
f 45/73/42 47/74/42 49/54/42
f 49/54/42 43/53/42 45/73/42
f 49/54/42 53/72/42 55/70/42
f 83/58/43 67/55/43 81/57/43
f 77/58/44 61/55/44 75/57/44
f 68/44/45 70/45/45 84/48/45
f 87/58/46 71/55/46 85/57/46
f 62/44/47 64/45/47 78/48/47
f 65/55/48 63/56/48 81/58/48
f 72/44/49 58/45/49 88/48/49
f 58/44/50 60/45/50 74/48/50
f 51/47/51 49/41/51 67/43/51
f 43/47/52 41/41/52 59/43/52
f 95/44/53 94/45/53 64/48/53
f 57/43/54 41/47/54 71/42/54
f 96/44/55 90/45/55 70/48/55
f 47/47/56 45/41/56 63/43/56
f 91/44/57 89/45/57 60/48/57
f 53/47/58 51/41/58 69/43/58
f 73/75/59 74/59/59 75/61/59
f 75/75/60 76/59/60 77/61/60
f 77/75/61 78/59/61 79/61/61
f 79/75/39 80/59/39 81/61/39
f 81/75/62 82/59/62 83/61/62
f 83/75/63 84/59/63 85/61/63
f 87/75/64 88/59/64 73/61/64
f 85/75/65 86/59/65 87/61/65
f 75/58/66 59/55/66 73/57/66
f 64/44/67 66/45/67 80/48/67
f 73/58/68 57/55/68 87/57/68
f 70/44/69 72/45/69 86/48/69
f 63/55/70 61/56/70 79/58/70
f 60/44/71 62/45/71 76/48/71
f 69/55/72 67/56/72 85/58/72
f 66/44/73 68/45/73 82/48/73
f 93/65/74 52/62/74 96/64/74
f 46/62/75 48/63/75 89/65/75
f 90/65/76 56/62/76 92/64/76
f 42/62/77 44/63/77 92/65/77
f 50/62/78 52/63/78 94/65/78
f 95/65/79 48/62/79 94/64/79
f 54/62/80 56/63/80 96/65/80
f 91/65/81 44/62/81 89/64/81
f 100/76/82 99/77/82 98/66/82
f 102/68/82 101/78/82 100/76/82
f 104/79/82 103/80/82 102/68/82
f 102/68/82 97/67/82 104/79/82
f 102/68/82 100/76/82 98/66/82
f 104/51/61 56/69/61 103/50/61
f 54/69/60 52/49/60 103/51/60
f 52/69/59 50/49/59 102/51/59
f 50/69/64 48/49/64 101/51/64
f 48/69/65 46/49/65 100/51/65
f 46/69/63 44/49/63 99/51/63
f 44/69/62 42/49/62 98/51/62
o TopPosxMidz
v 0.746029 4.365750 0.253971
v 0.746029 4.365750 -0.253971
v 1.253971 4.365750 -0.253971
v 1.253971 4.365750 0.253971
v 0.746029 4.883273 0.253971
v 0.746029 4.883273 -0.253971
v 1.253971 4.883273 -0.253971
v 1.253971 4.883273 0.253971
vt 0.964662 0.536977
vt 0.964662 0.966340
vt 0.535299 0.966340
vt 1.000000 0.000000
vt 1.000000 1.000000
vt 0.000000 1.000000
vt 0.389387 0.610613
vt 0.389387 0.904783
vt 0.095217 0.904783
vt 0.535299 0.536977
vt 0.000000 0.000000
vt 0.095217 0.610613
vn -1.000000 0.000000 0.000000
vn 0.000000 0.000000 -1.000000
vn 1.000000 0.000000 0.000000
vn 0.000000 0.000000 1.000000
vn 0.000000 -1.000000 0.000000
vn 0.000000 1.000000 0.000000
s off
f 110/81/83 106/82/83 105/83/83
f 111/81/84 107/82/84 106/83/84
f 112/81/85 108/82/85 107/83/85
f 109/81/86 105/82/86 108/83/86
f 106/84/87 107/85/87 108/86/87
f 111/87/88 110/88/88 109/89/88
f 109/90/83 110/81/83 105/83/83
f 110/90/84 111/81/84 106/83/84
f 111/90/85 112/81/85 107/83/85
f 112/90/86 109/81/86 108/83/86
f 105/91/87 106/84/87 108/86/87
f 112/92/88 111/87/88 109/89/88
o TopMidxPosz
v -0.253971 4.365750 -0.746029
v -0.253971 4.365750 -1.253971
v 0.253971 4.365750 -1.253971
v 0.253971 4.365750 -0.746029
v -0.253971 4.883273 -0.746029
v -0.253971 4.883273 -1.253971
v 0.253971 4.883273 -1.253971
v 0.253971 4.883273 -0.746029
vt 0.964662 0.536977
vt 0.964662 0.966340
vt 0.535299 0.966340
vt 1.000000 0.000000
vt 1.000000 1.000000
vt 0.000000 1.000000
vt 0.389387 0.610613
vt 0.389387 0.904783
vt 0.095217 0.904783
vt 0.535299 0.536977
vt 0.000000 0.000000
vt 0.095217 0.610613
vn -1.000000 0.000000 0.000000
vn 0.000000 0.000000 -1.000000
vn 1.000000 0.000000 0.000000
vn 0.000000 0.000000 1.000000
vn 0.000000 -1.000000 0.000000
vn 0.000000 1.000000 0.000000
s off
f 118/93/89 114/94/89 113/95/89
f 119/93/90 115/94/90 114/95/90
f 120/93/91 116/94/91 115/95/91
f 117/93/92 113/94/92 116/95/92
f 114/96/93 115/97/93 116/98/93
f 119/99/94 118/100/94 117/101/94
f 117/102/89 118/93/89 113/95/89
f 118/102/90 119/93/90 114/95/90
f 119/102/91 120/93/91 115/95/91
f 120/102/92 117/93/92 116/95/92
f 113/103/93 114/96/93 116/98/93
f 120/104/94 119/99/94 117/101/94
o TopPosxNegz
v 0.746029 4.365750 1.253971
v 0.746029 4.365750 0.746029
v 1.253971 4.365750 0.746029
v 1.103971 4.365750 1.103971
v 0.746029 4.883273 1.253971
v 0.746029 4.883273 0.746029
v 1.253971 4.883273 0.746029
v 1.253971 4.883273 1.253971
vt 0.964662 0.536977
vt 0.964662 0.966340
vt 0.535299 0.966340
vt 0.535299 0.536977
vt 1.000000 0.000000
vt 1.000000 1.000000
vt 0.000000 1.000000
vt 0.389387 0.610613
vt 0.389387 0.904783
vt 0.095217 0.904783
vt 0.000000 0.000000
vt 0.095217 0.610613
vn -1.000000 0.000000 0.000000
vn 0.000000 0.000000 -1.000000
vn 0.960500 -0.278400 0.000000
vn 0.386500 0.000000 0.922300
vn 0.000000 -1.000000 -0.000000
vn 0.000000 1.000000 0.000000
vn 0.922300 0.000000 0.386500
vn 0.000000 -0.278400 0.960500
s off
f 126/105/95 122/106/95 121/107/95
f 127/105/96 123/106/96 122/107/96
f 127/108/97 128/105/97 124/106/97
f 125/105/98 121/106/98 124/107/98
f 122/109/99 123/110/99 124/111/99
f 127/112/100 126/113/100 125/114/100
f 125/108/95 126/105/95 121/107/95
f 126/108/96 127/105/96 122/107/96
f 123/107/101 127/108/101 124/106/101
f 128/108/102 125/105/102 124/107/102
f 121/115/99 122/109/99 124/111/99
f 128/116/100 127/112/100 125/114/100
o TopMidxNegz
v -0.253971 4.365750 1.253971
v -0.253971 4.365750 0.746029
v 0.253971 4.365750 0.746029
v 0.253971 4.365750 1.253971
v -0.253971 4.883273 1.253971
v -0.253971 4.883273 0.746029
v 0.253971 4.883273 0.746029
v 0.253971 4.883273 1.253971
vt 0.964662 0.536977
vt 0.964662 0.966340
vt 0.535299 0.966340
vt 1.000000 0.000000
vt 1.000000 1.000000
vt 0.000000 1.000000
vt 0.389387 0.610613
vt 0.389387 0.904783
vt 0.095217 0.904783
vt 0.535299 0.536977
vt 0.000000 0.000000
vt 0.095217 0.610613
vn -1.000000 0.000000 0.000000
vn 0.000000 0.000000 -1.000000
vn 1.000000 0.000000 0.000000
vn 0.000000 0.000000 1.000000
vn 0.000000 -1.000000 0.000000
vn 0.000000 1.000000 0.000000
s off
f 134/117/103 130/118/103 129/119/103
f 135/117/104 131/118/104 130/119/104
f 136/117/105 132/118/105 131/119/105
f 133/117/106 129/118/106 132/119/106
f 130/120/107 131/121/107 132/122/107
f 135/123/108 134/124/108 133/125/108
f 133/126/103 134/117/103 129/119/103
f 134/126/104 135/117/104 130/119/104
f 135/126/105 136/117/105 131/119/105
f 136/126/106 133/117/106 132/119/106
f 129/127/107 130/120/107 132/122/107
f 136/128/108 135/123/108 133/125/108
o TopNegxNegz
v -1.103971 4.365750 1.103971
v -1.253971 4.365750 0.746029
v -0.746029 4.365750 0.746029
v -0.746029 4.365750 1.253971
v -1.253971 4.883273 1.253971
v -1.253971 4.883273 0.746029
v -0.746029 4.883273 0.746029
v -0.746029 4.883273 1.253971
vt 0.964662 0.536977
vt 0.964662 0.966340
vt 0.535299 0.966340
vt 0.535299 0.536977
vt 0.000000 0.000000
vt 1.000000 0.000000
vt 1.000000 1.000000
vt 0.389387 0.610613
vt 0.389387 0.904783
vt 0.095217 0.904783
vt 0.000000 1.000000
vt 0.095217 0.610613
vn -0.922300 0.000000 0.386500
vn 0.000000 0.000000 -1.000000
vn 1.000000 0.000000 0.000000
vn 0.000000 -0.278400 0.960500
vn 0.000000 -1.000000 0.000000
vn 0.000000 1.000000 0.000000
vn -0.960500 -0.278400 0.000000
vn -0.386500 0.000000 0.922300
s off
f 142/129/109 138/130/109 137/131/109
f 143/129/110 139/130/110 138/131/110
f 144/129/111 140/130/111 139/131/111
f 144/132/112 141/129/112 137/130/112
f 137/133/113 138/134/113 139/135/113
f 143/136/114 142/137/114 141/138/114
f 141/132/115 142/129/115 137/131/115
f 142/132/110 143/129/110 138/131/110
f 143/132/111 144/129/111 139/131/111
f 140/131/116 144/132/116 137/130/116
f 140/139/113 137/133/113 139/135/113
f 144/140/114 143/136/114 141/138/114
o TopNegxMidz
v -1.253971 4.365750 0.253971
v -1.253971 4.365750 -0.253971
v -0.746029 4.365750 -0.253971
v -0.746029 4.365750 0.253971
v -1.253971 4.883273 0.253971
v -1.253971 4.883273 -0.253971
v -0.746029 4.883273 -0.253971
v -0.746029 4.883273 0.253971
vt 0.964662 0.536977
vt 0.964662 0.966340
vt 0.535299 0.966340
vt 1.000000 0.000000
vt 1.000000 1.000000
vt 0.000000 1.000000
vt 0.389387 0.610613
vt 0.389387 0.904783
vt 0.095217 0.904783
vt 0.535299 0.536977
vt 0.000000 0.000000
vt 0.095217 0.610613
vn -1.000000 0.000000 0.000000
vn 0.000000 0.000000 -1.000000
vn 1.000000 0.000000 0.000000
vn 0.000000 0.000000 1.000000
vn 0.000000 -1.000000 0.000000
vn 0.000000 1.000000 0.000000
s off
f 150/141/117 146/142/117 145/143/117
f 151/141/118 147/142/118 146/143/118
f 152/141/119 148/142/119 147/143/119
f 149/141/120 145/142/120 148/143/120
f 146/144/121 147/145/121 148/146/121
f 151/147/122 150/148/122 149/149/122
f 149/150/117 150/141/117 145/143/117
f 150/150/118 151/141/118 146/143/118
f 151/150/119 152/141/119 147/143/119
f 152/150/120 149/141/120 148/143/120
f 145/151/121 146/144/121 148/146/121
f 152/152/122 151/147/122 149/149/122
o TopNegxPosz
v -1.253971 4.365750 -0.746029
v -1.103971 4.365750 -1.103971
v -0.746029 4.365750 -1.253971
v -0.746029 4.365750 -0.746029
v -1.253971 4.883273 -0.746029
v -1.253971 4.883273 -1.253971
v -0.746029 4.883273 -1.253971
v -0.746029 4.883273 -0.746029
vt 0.535299 0.536977
vt 0.964662 0.536977
vt 0.964662 0.966340
vt 0.535299 0.966340
vt 1.000000 0.000000
vt 1.000000 1.000000
vt 0.000000 1.000000
vt 0.389387 0.610613
vt 0.389387 0.904783
vt 0.095217 0.904783
vt 0.000000 0.000000
vt 0.095217 0.610613
vn -0.960500 -0.278400 0.000000
vn -0.386500 0.000000 -0.922300
vn 1.000000 0.000000 0.000000
vn 0.000000 0.000000 1.000000
vn 0.000000 -1.000000 0.000000
vn 0.000000 1.000000 0.000000
vn -0.922300 0.000000 -0.386500
vn 0.000000 -0.278400 -0.960500
s off
f 157/153/123 158/154/123 154/155/123
f 159/154/124 155/155/124 154/156/124
f 160/154/125 156/155/125 155/156/125
f 157/154/126 153/155/126 156/156/126
f 154/157/127 155/158/127 156/159/127
f 159/160/128 158/161/128 157/162/128
f 153/156/129 157/153/129 154/155/129
f 158/153/130 159/154/130 154/156/130
f 159/153/125 160/154/125 155/156/125
f 160/153/126 157/154/126 156/156/126
f 153/163/127 154/157/127 156/159/127
f 160/164/128 159/160/128 157/162/128
o TopPosxPosz
v 0.746029 4.365750 -0.746029
v 0.746029 4.365750 -1.253971
v 1.103971 4.365750 -1.103971
v 1.253971 4.365750 -0.746029
v 0.746029 4.883273 -0.746029
v 0.746029 4.883273 -1.253971
v 1.253971 4.883273 -1.253971
v 1.253971 4.883273 -0.746029
vt 0.964662 0.536977
vt 0.964662 0.966340
vt 0.535299 0.966340
vt 0.535299 0.536977
vt 0.000000 0.000000
vt 1.000000 0.000000
vt 1.000000 1.000000
vt 0.389387 0.610613
vt 0.389387 0.904783
vt 0.095217 0.904783
vt 0.000000 1.000000
vt 0.095217 0.610613
vn -1.000000 0.000000 0.000000
vn 0.000000 -0.278400 -0.960500
vn 0.922300 0.000000 -0.386500
vn 0.000000 0.000000 1.000000
vn 0.000000 -1.000000 0.000000
vn 0.000000 1.000000 0.000000
vn 0.386500 0.000000 -0.922300
vn 0.960500 -0.278400 0.000000
s off
f 166/165/131 162/166/131 161/167/131
f 166/168/132 167/165/132 163/166/132
f 168/165/133 164/166/133 163/167/133
f 165/165/134 161/166/134 164/167/134
f 161/169/135 162/170/135 163/171/135
f 167/172/136 166/173/136 165/174/136
f 165/168/131 166/165/131 161/167/131
f 162/167/137 166/168/137 163/166/137
f 167/168/138 168/165/138 163/167/138
f 168/168/134 165/165/134 164/167/134
f 164/175/135 161/169/135 163/171/135
f 168/176/136 167/172/136 165/174/136
