# Blender v2.76 (sub 0) OBJ File: ''
# www.blender.org
mtllib reflector.mtl
o EnergyBlaster
v 0.000000 1.242149 -0.083616
v 0.000000 1.334889 0.187788
v 0.070871 1.216354 -0.083616
v 0.130483 1.287397 0.187788
v 0.108581 1.151039 -0.083616
v 0.199912 1.167143 0.187788
v 0.095484 1.076765 -0.083616
v 0.175800 1.030395 0.187788
v 0.037710 1.028286 -0.083616
v 0.069429 0.941139 0.187788
v -0.037710 1.028286 -0.083616
v -0.069429 0.941139 0.187788
v -0.095485 1.076765 -0.083616
v -0.175800 1.030395 0.187788
v -0.108581 1.151039 -0.083616
v -0.130483 1.287397 0.187788
v 0.000000 1.255622 0.290641
v -0.070871 1.216354 -0.083616
v -0.199912 1.167143 0.187788
v -0.057138 1.199988 -0.282212
v 0.000000 1.220784 -0.282212
v 0.057138 1.199988 -0.282212
v -0.087541 1.147329 -0.282212
v -0.076982 1.087447 -0.282212
v -0.030403 1.048363 -0.282212
v 0.030402 1.048363 -0.282212
v 0.076982 1.087447 -0.282212
v 0.087541 1.147329 -0.282212
v 0.107152 1.070029 0.290641
v -0.042318 1.015626 0.290641
v 0.042318 1.015626 0.290641
v -0.079531 1.226675 0.290641
v -0.121849 1.153378 0.290641
v -0.107152 1.070029 0.290641
v 0.121849 1.153378 0.290641
v 0.079531 1.226675 0.290641
vt 0.948800 1.000000
vt 0.448800 1.000000
vt 0.948800 0.500000
vt 0.000000 0.500000
vt 0.500000 0.500000
vt 0.000000 1.000000
vt 1.000000 0.836800
vt 0.500000 0.836800
vt 1.000000 0.336800
vt 0.750000 0.500000
vt 0.910697 0.441511
vt 0.589303 0.441511
vt 0.003798 0.293412
vt 0.164495 0.015077
vt 0.033494 0.125000
vt 0.448800 0.500000
vt 0.500000 1.000000
vt 0.500000 0.336800
vt 0.996202 0.293412
vt 0.966506 0.125000
vt 0.835505 0.015077
vt 0.664495 0.015077
vt 0.533494 0.125000
vt 0.503798 0.293412
vt 0.335505 0.015077
vt 0.410697 0.441511
vt 0.496202 0.293412
vt 0.466506 0.125000
vt 0.250000 0.500000
vt 0.089303 0.441511
vn 0.325600 0.894700 -0.305700
vn 0.824600 0.476100 -0.305700
vn 0.937700 -0.165300 -0.305700
vn 0.612000 -0.729400 -0.305700
vn 0.000000 -0.952100 -0.305700
vn -0.612000 -0.729400 -0.305700
vn -0.937700 -0.165300 -0.305700
vn -0.277000 0.761100 0.586500
vn -0.325600 0.894700 -0.305700
vn -0.824600 0.476100 -0.305700
vn -0.340300 0.934900 -0.100600
vn 0.000000 0.000000 -1.000000
vn -0.861600 0.497500 -0.100600
vn -0.979800 -0.172800 -0.100600
vn -0.639500 -0.762200 -0.100600
vn 0.000000 -0.994900 -0.100600
vn 0.639500 -0.762200 -0.100600
vn 0.979800 -0.172800 -0.100600
vn 0.861600 0.497500 -0.100600
vn 0.340300 0.934900 -0.100600
vn 0.000000 0.000000 1.000000
vn -0.701400 0.405000 0.586500
vn -0.797600 -0.140600 0.586500
vn -0.520600 -0.620400 0.586500
vn 0.000000 -0.809900 0.586500
vn 0.520600 -0.620400 0.586500
vn 0.797600 -0.140600 0.586500
vn 0.701400 0.405000 0.586500
vn 0.277000 0.761100 0.586500
vn -0.797600 -0.140600 0.586600
usemtl Reflector
f 1/1/1 2/2/1 3/3/1
f 3/1/2 4/2/2 5/3/2
f 5/1/3 6/2/3 7/3/3
f 7/1/4 8/2/4 9/3/4
f 9/1/5 10/2/5 11/3/5
f 11/1/6 12/2/6 13/3/6
f 13/1/7 14/2/7 15/3/7
f 2/4/8 16/5/8 17/6/8
f 18/1/9 16/2/9 1/3/9
f 15/1/10 19/2/10 18/3/10
f 18/7/11 1/8/11 20/9/11
f 21/10/12 22/11/12 20/12/12
f 15/7/13 18/8/13 23/9/13
f 13/7/14 15/8/14 24/9/14
f 11/7/15 13/8/15 25/9/15
f 9/7/16 11/8/16 26/9/16
f 7/7/17 9/8/17 27/9/17
f 5/7/18 7/8/18 28/9/18
f 3/7/19 5/8/19 22/9/19
f 1/7/20 3/8/20 21/9/20
f 29/13/21 30/14/21 31/15/21
f 16/4/22 19/5/22 32/6/22
f 19/4/23 14/5/23 33/6/23
f 14/4/24 12/5/24 34/6/24
f 12/4/25 10/5/25 30/6/25
f 10/4/26 8/5/26 31/6/26
f 8/4/27 6/5/27 29/6/27
f 6/4/28 4/5/28 35/6/28
f 4/4/29 2/5/29 36/6/29
f 2/2/1 4/16/1 3/3/1
f 4/2/2 6/16/2 5/3/2
f 6/2/3 8/16/3 7/3/3
f 8/2/4 10/16/4 9/3/4
f 10/2/5 12/16/5 11/3/5
f 12/2/6 14/16/6 13/3/6
f 14/2/7 19/16/7 15/3/7
f 16/5/8 32/17/8 17/6/8
f 16/2/9 2/16/9 1/3/9
f 19/2/10 16/16/10 18/3/10
f 1/8/11 21/18/11 20/9/11
f 28/19/12 27/20/12 26/21/12
f 28/19/12 26/21/12 25/22/12
f 22/11/12 28/19/12 20/12/12
f 28/19/12 25/22/12 20/12/12
f 25/22/12 24/23/12 20/12/12
f 24/23/12 23/24/12 20/12/12
f 18/8/13 20/18/13 23/9/13
f 15/8/14 23/18/14 24/9/14
f 13/8/15 24/18/15 25/9/15
f 11/8/16 25/18/16 26/9/16
f 9/8/17 26/18/17 27/9/17
f 7/8/18 27/18/18 28/9/18
f 5/8/19 28/18/19 22/9/19
f 3/8/20 22/18/20 21/9/20
f 29/13/21 34/25/21 30/14/21
f 17/26/21 32/27/21 33/28/21
f 36/29/21 17/26/21 33/28/21
f 36/29/21 33/28/21 34/25/21
f 35/30/21 36/29/21 34/25/21
f 29/13/21 35/30/21 34/25/21
f 19/5/22 33/17/22 32/6/22
f 14/5/23 34/17/30 33/6/23
f 12/5/24 30/17/24 34/6/24
f 10/5/25 31/17/25 30/6/25
f 8/5/26 29/17/26 31/6/26
f 6/5/27 35/17/27 29/6/27
f 4/5/28 36/17/28 35/6/28
f 2/5/29 17/17/29 36/6/29
o Ring
v 0.200623 1.163777 -0.132192
v 0.133225 1.285288 -0.132192
v 0.180561 1.160594 -0.097008
v 0.119903 1.269953 -0.097008
v 0.140436 1.154227 -0.097008
v 0.093258 1.239285 -0.097008
v 0.120374 1.151044 -0.132192
v 0.079935 1.223951 -0.132192
v 0.140436 1.154227 -0.167376
v 0.093258 1.239285 -0.167376
v 0.180561 1.160594 -0.167376
v 0.003490 1.335048 -0.132192
v 0.003141 1.314737 -0.097008
v 0.002443 1.274117 -0.097008
v 0.002094 1.253807 -0.132192
v 0.002443 1.274117 -0.167376
v 0.119903 1.269953 -0.167376
v 0.003141 1.314737 -0.167376
v -0.127879 1.289774 -0.132192
v -0.115091 1.273991 -0.097008
v -0.089515 1.242425 -0.097008
v -0.076727 1.226642 -0.132192
v -0.089515 1.242425 -0.167376
v -0.115091 1.273991 -0.167376
v -0.199411 1.170650 -0.132192
v -0.179470 1.166780 -0.097008
v -0.139588 1.159039 -0.097008
v -0.119647 1.155168 -0.132192
v -0.139588 1.159039 -0.167376
v -0.179470 1.166780 -0.167376
v -0.177637 1.033416 -0.132192
v -0.159873 1.043269 -0.097008
v -0.124346 1.062975 -0.097008
v -0.106582 1.072828 -0.132192
v -0.124346 1.062975 -0.167376
v -0.159873 1.043269 -0.167376
v -0.072744 0.942285 -0.132192
v -0.065470 0.961251 -0.097008
v -0.050921 0.999183 -0.097008
v -0.043646 1.018149 -0.132192
v -0.050921 0.999183 -0.167376
v -0.065470 0.961251 -0.167376
v 0.066186 0.939898 -0.132192
v 0.059568 0.959102 -0.097008
v 0.046330 0.997512 -0.097008
v 0.039712 1.016717 -0.132192
v 0.046330 0.997512 -0.167376
v 0.059568 0.959102 -0.167376
v 0.174147 1.027372 -0.132192
v 0.156733 1.037829 -0.097008
v 0.121903 1.058744 -0.097008
v 0.104488 1.069201 -0.132192
v 0.121903 1.058744 -0.167376
v 0.156733 1.037829 -0.167376
vt 0.500000 0.500000
vt 1.000000 0.500000
vt 0.500000 1.000000
vt 1.000000 1.000000
vn 0.768700 0.426300 0.476900
vn 0.000000 -0.000000 1.000000
vn -0.768700 -0.426300 0.476900
vn -0.768700 -0.426300 -0.476900
vn 0.000000 0.000000 -1.000000
vn 0.768700 0.426300 -0.476900
vn 0.314800 0.820700 0.476900
vn -0.314800 -0.820700 0.476900
vn -0.314800 -0.820700 -0.476900
vn 0.314800 0.820700 -0.476900
vn -0.286400 0.831000 0.476900
vn 0.286400 -0.831000 0.476900
vn 0.286400 -0.831000 -0.476900
vn -0.286400 0.831000 -0.476900
vn -0.753600 0.452500 0.476900
vn 0.753500 -0.452500 0.476900
vn 0.753500 -0.452500 -0.476900
vn -0.753600 0.452500 -0.476900
vn -0.868100 -0.137700 0.476900
vn 0.868100 0.137700 0.476900
vn 0.868100 0.137700 -0.476900
vn -0.868100 -0.137700 -0.476900
vn -0.576500 -0.663500 0.476900
vn 0.576500 0.663500 0.476900
vn 0.576500 0.663500 -0.476900
vn -0.576500 -0.663500 -0.476900
vn -0.015100 -0.878800 0.476900
vn -0.015100 -0.878900 0.476900
vn 0.015100 0.878800 0.476900
vn 0.015100 0.878800 -0.476900
vn -0.015100 -0.878800 -0.476900
vn -0.015100 -0.878900 -0.476900
vn 0.553400 -0.683000 0.476800
vn 0.553400 -0.682900 0.476900
vn 0.553400 -0.682900 0.476800
vn -0.553300 0.682900 0.476900
vn -0.553300 0.682900 -0.476900
vn 0.553400 -0.682900 -0.476800
vn 0.553300 -0.682900 -0.476900
vn 0.862900 -0.167500 0.476900
vn -0.862900 0.167500 0.476900
vn -0.862900 0.167500 -0.476900
vn 0.862900 -0.167500 -0.476900
vn -0.015100 -0.878900 0.476800
vn 0.553300 -0.682900 0.476900
usemtl Reflector
f 37/31/31 38/32/31 39/33/31
f 39/31/32 40/32/32 41/33/32
f 41/31/33 42/32/33 43/33/33
f 43/31/34 44/32/34 45/33/34
f 45/31/35 46/32/35 47/33/35
f 37/31/36 47/32/36 38/33/36
f 38/31/37 48/32/37 40/33/37
f 40/31/32 49/32/32 50/34/32
f 42/31/38 50/32/38 44/33/38
f 44/31/39 51/32/39 46/33/39
f 46/31/35 52/32/35 53/33/35
f 53/31/40 54/32/40 38/33/40
f 48/31/41 55/32/41 49/33/41
f 49/31/32 56/32/32 50/33/32
f 50/31/42 57/32/42 51/33/42
f 51/31/43 58/32/43 52/33/43
f 52/31/35 59/32/35 60/34/35
f 54/31/44 60/32/44 48/33/44
f 55/31/45 61/32/45 62/34/45
f 56/31/32 62/32/32 57/33/32
f 57/31/46 63/32/46 64/34/46
f 58/31/47 64/32/47 59/33/47
f 59/31/35 65/32/35 60/33/35
f 60/31/48 66/32/48 55/33/48
f 61/31/49 67/32/49 68/34/49
f 62/31/32 68/32/32 63/33/32
f 63/31/50 69/32/50 64/33/50
f 64/31/51 70/32/51 65/33/51
f 65/31/35 71/32/35 72/34/35
f 66/31/52 72/32/52 61/33/52
f 67/31/53 73/32/53 68/33/53
f 68/31/32 74/32/32 69/33/32
f 69/31/54 75/32/54 76/34/54
f 70/31/55 76/32/55 71/33/55
f 71/31/35 77/32/35 78/34/35
f 72/31/56 78/32/56 67/33/56
f 73/31/57 79/32/58 74/33/57
f 74/31/32 80/32/32 75/33/32
f 75/31/59 81/32/59 76/33/59
f 76/31/60 82/32/60 77/33/60
f 77/31/35 83/32/35 78/33/35
f 78/31/61 84/32/62 73/33/61
f 79/31/63 85/32/64 80/33/65
f 80/31/32 86/32/32 81/33/32
f 81/31/66 87/32/66 82/33/66
f 82/31/67 88/32/67 83/33/67
f 83/31/35 89/32/35 84/33/35
f 84/31/68 90/32/69 85/34/69
f 85/31/70 37/32/70 86/33/70
f 86/31/32 39/32/32 87/33/32
f 87/31/71 41/32/71 88/33/71
f 88/31/72 43/32/72 89/33/72
f 89/31/35 45/32/35 90/33/35
f 90/31/73 47/32/73 37/34/73
f 38/32/31 40/34/31 39/33/31
f 40/32/32 42/34/32 41/33/32
f 42/32/33 44/34/33 43/33/33
f 44/32/34 46/34/34 45/33/34
f 46/32/35 53/34/35 47/33/35
f 47/32/36 53/34/36 38/33/36
f 48/32/37 49/34/37 40/33/37
f 42/33/32 40/31/32 50/34/32
f 50/32/38 51/34/38 44/33/38
f 51/32/39 52/34/39 46/33/39
f 52/32/35 54/34/35 53/33/35
f 54/32/40 48/34/40 38/33/40
f 55/32/41 56/34/41 49/33/41
f 56/32/32 57/34/32 50/33/32
f 57/32/42 58/34/42 51/33/42
f 58/32/43 59/34/43 52/33/43
f 54/33/35 52/31/35 60/34/35
f 60/32/44 55/34/44 48/33/44
f 56/33/45 55/31/45 62/34/45
f 62/32/32 63/34/32 57/33/32
f 58/33/46 57/31/46 64/34/46
f 64/32/47 65/34/47 59/33/47
f 65/32/35 66/34/35 60/33/35
f 66/32/48 61/34/48 55/33/48
f 62/33/49 61/31/49 68/34/49
f 68/32/32 69/34/32 63/33/32
f 69/32/50 70/34/50 64/33/50
f 70/32/51 71/34/51 65/33/51
f 66/33/35 65/31/35 72/34/35
f 72/32/52 67/34/52 61/33/52
f 73/32/53 74/34/53 68/33/53
f 74/32/32 75/34/32 69/33/32
f 70/33/54 69/31/54 76/34/54
f 76/32/55 77/34/55 71/33/55
f 72/33/35 71/31/35 78/34/35
f 78/32/56 73/34/56 67/33/56
f 79/32/58 80/34/74 74/33/57
f 80/32/32 81/34/32 75/33/32
f 81/32/59 82/34/59 76/33/59
f 82/32/60 83/34/60 77/33/60
f 83/32/35 84/34/35 78/33/35
f 84/32/62 79/34/62 73/33/61
f 85/32/64 86/34/75 80/33/65
f 86/32/32 87/34/32 81/33/32
f 87/32/66 88/34/66 82/33/66
f 88/32/67 89/34/67 83/33/67
f 89/32/35 90/34/35 84/33/35
f 79/33/68 84/31/68 85/34/69
f 37/32/70 39/34/70 86/33/70
f 39/32/32 41/34/32 87/33/32
f 41/32/71 43/34/71 88/33/71
f 43/32/72 45/34/72 89/33/72
f 45/32/35 47/34/35 90/33/35
f 85/33/73 90/31/73 37/34/73
o Axle
v -0.041604 1.129241 0.041604
v -0.041604 1.129241 -0.041604
v -0.042071 0.805585 0.042071
v 0.041604 1.129241 -0.041604
v -0.042071 0.805585 -0.042071
v 0.041604 1.129241 0.041604
v 0.042071 0.805585 -0.042071
v 0.042071 0.805585 0.042071
vt 0.000000 0.500000
vt 0.500000 0.500000
vt 0.000000 1.000000
vt 0.500000 1.000000
vn -1.000000 0.001400 0.000000
vn 0.000000 0.001400 -1.000000
vn 1.000000 0.001400 0.000000
vn 0.000000 0.001400 1.000000
usemtl Reflector
f 91/35/76 92/36/76 93/37/76
f 92/35/77 94/36/77 95/37/77
f 94/35/78 96/36/78 97/37/78
f 96/35/79 91/36/79 98/37/79
f 92/36/76 95/38/76 93/37/76
f 94/36/77 97/38/77 95/37/77
f 96/36/78 98/38/78 97/37/78
f 91/36/79 93/38/79 98/37/79
o Base
v 0.089808 0.814962 -0.089808
v -0.089808 0.814962 -0.089808
v 0.089808 0.814962 0.089808
v -0.089808 0.814962 0.089808
v -0.146304 0.140310 0.146304
v -0.146304 0.140310 -0.146304
v 0.146304 0.140310 -0.146304
v 0.146304 0.140310 0.146304
v -0.146304 0.140310 0.146304
v 0.146304 0.140310 0.146304
v 0.146304 0.140310 -0.146304
v -0.146304 0.140310 -0.146304
v -0.370646 0.223467 0.370646
v -0.370646 0.223467 -0.370646
v -0.370646 0.059008 0.370646
v 0.370646 0.223467 -0.370646
v -0.370646 0.059008 -0.370646
v 0.370646 0.223467 0.370646
v 0.370646 0.059008 -0.370646
v 0.370646 0.059008 0.370646
vt 0.500000 0.500000
vt 1.000000 0.500000
vt 0.500000 1.000000
vt 0.000000 0.500000
vt 0.000000 1.000000
vt 1.000000 1.000000
vn 0.000000 1.000000 0.000000
vn -0.996500 0.083400 0.000000
vn 0.000000 0.083400 -0.996500
vn 0.996500 0.083400 0.000000
vn 0.000000 0.083400 0.996500
vn 0.000000 0.000000 0.000000
vn -1.000000 0.000000 0.000000
vn 0.000000 0.000000 -1.000000
vn 1.000000 0.000000 0.000000
vn 0.000000 -0.000000 1.000000
vn 0.000000 -1.000000 -0.000000
usemtl Reflector
f 99/39/80 100/40/80 101/41/80
f 102/39/81 100/40/81 103/41/81
f 100/39/82 99/40/82 104/41/82
f 99/39/83 101/40/83 105/41/83
f 101/39/84 102/40/84 106/41/84
f 107/39/85 108/40/85 103/41/85
f 108/39/85 109/40/85 106/41/85
f 109/39/85 110/40/85 105/41/85
f 110/39/85 107/40/85 104/41/85
f 111/42/86 112/39/86 113/43/86
f 112/42/87 114/39/87 115/43/87
f 114/42/88 116/39/88 117/43/88
f 116/42/89 111/39/89 118/43/89
f 113/42/90 115/39/90 118/43/90
f 116/42/80 114/39/80 111/43/80
f 100/40/80 102/44/80 101/41/80
f 100/40/81 104/44/81 103/41/81
f 99/40/82 105/44/82 104/41/82
f 101/40/83 106/44/83 105/41/83
f 102/40/84 103/44/84 106/41/84
f 108/40/85 106/44/85 103/41/85
f 109/40/85 105/44/85 106/41/85
f 110/40/85 104/44/85 105/41/85
f 107/40/85 103/44/85 104/41/85
f 112/39/86 115/41/86 113/43/86
f 114/39/87 117/41/87 115/43/87
f 116/39/88 118/41/88 117/43/88
f 111/39/89 113/41/89 118/43/89
f 115/39/90 117/41/90 118/43/90
f 114/39/80 112/41/80 111/43/80
