# Blender v2.76 (sub 0) OBJ File: 'tele.blend'
# www.blender.org
mtllib telepad_short.mtl
o Connector
v -0.262909 3.388816 0.262909
v -0.262909 3.691933 0.262909
v -0.262909 3.388816 -0.262909
v -0.262909 3.691933 -0.262909
v 0.262909 3.388816 0.262909
v 0.262909 3.691933 0.262909
v 0.262909 3.388816 -0.262909
v 0.262909 3.691933 -0.262909
vt 0.993167 0.505142
vt 0.993167 0.996858
vt 0.501450 0.996858
vt 0.390130 0.611101
vt 0.390130 0.905664
vt 0.095566 0.905664
vt 0.501450 0.505142
vt 0.095566 0.611101
vn -1.000000 0.000000 0.000000
vn 0.000000 0.000000 -1.000000
vn 1.000000 0.000000 0.000000
vn 0.000000 0.000000 1.000000
vn 0.000000 1.000000 0.000000
usemtl Connector
f 4/1/1 3/2/1 1/3/1
f 8/1/2 7/2/2 3/3/2
f 6/1/3 5/2/3 7/3/3
f 2/1/4 1/2/4 5/3/4
f 8/4/5 4/5/5 2/6/5
f 2/7/1 4/1/1 1/3/1
f 4/7/2 8/1/2 3/3/2
f 8/7/3 6/1/3 7/3/3
f 6/7/4 2/1/4 5/3/4
f 6/8/5 8/4/5 2/6/5
o Top
v -2.000000 3.690734 -2.000000
v -2.000000 3.490734 -2.000000
v -2.000000 3.690734 2.000000
v -2.000000 3.490734 2.000000
v 2.000000 3.690734 -2.000000
v 2.000000 3.490734 -2.000000
v 2.000000 3.690734 2.000000
v 2.000000 3.490734 2.000000
v -1.500000 3.490734 -1.500000
v -1.500000 3.290734 -1.500000
v -1.500000 3.490734 1.500000
v -1.500000 3.290734 1.500000
v 1.500000 3.490734 -1.500000
v 1.500000 3.290734 -1.500000
v 1.500000 3.490734 1.500000
v 1.500000 3.290734 1.500000
v -0.750000 3.290734 -0.750000
v -0.750000 3.090734 -0.750000
v -0.750000 3.290734 0.750000
v -0.750000 3.090734 0.750000
v 0.750000 3.290734 -0.750000
v 0.750000 3.090734 -0.750000
v 0.750000 3.290734 0.750000
v 0.750000 3.090734 0.750000
v -2.000000 3.690734 0.666667
v -2.000000 3.690734 -0.666667
v 0.666667 3.690734 2.000000
v -0.666667 3.690734 2.000000
v 2.000000 3.690734 -0.666667
v 2.000000 3.690734 0.666667
v -0.666667 3.690734 -2.000000
v 0.666667 3.690734 -2.000000
v -1.768620 3.690734 -1.768620
v 1.768620 3.690734 -1.768620
v -1.768620 3.690734 1.768620
v 1.768620 3.690734 1.768620
v -1.768620 3.599312 -1.768620
v 1.768620 3.599312 -1.768620
v -1.768620 3.599313 1.768620
v 1.768620 3.599313 1.768620
v -0.621219 3.090734 -0.621219
v -0.621219 3.090734 0.621219
v 0.621219 3.090734 0.621219
v 0.621219 3.090734 -0.621219
v -0.621219 3.254340 -0.621219
v -0.621219 3.254340 0.621219
v 0.621219 3.254340 0.621219
v 0.621219 3.254340 -0.621219
vt 0.953582 0.867121
vt 0.752682 0.519153
vt 0.551782 0.635142
vt 0.752682 0.983111
vt 0.984661 0.519153
vt 0.984661 0.983111
vt 0.520703 0.983111
vt 0.986211 0.018439
vt 0.986211 0.482398
vt 0.522253 0.482398
vt 0.522253 0.018439
vt 0.994914 0.501149
vt 0.994914 0.988713
vt 0.507350 0.988713
vt 0.507350 0.501149
vt 0.487048 0.021540
vt 0.487048 0.485498
vt 0.023090 0.485498
vt 0.551782 0.867121
vt 0.953582 0.635142
vt 0.520703 0.519153
vt 0.023090 0.021540
vn -1.000000 -0.000000 0.000000
vn 0.000000 0.000000 1.000000
vn 1.000000 -0.000000 0.000000
vn 0.000000 0.000000 -1.000000
vn 0.000000 -1.000000 0.000000
vn 0.000000 1.000000 -0.000000
usemtl Main
f 12/9/6 33/10/6 34/11/6
f 16/9/7 35/10/7 12/12/7
f 14/9/8 37/10/8 38/11/8
f 10/9/9 39/10/9 14/12/9
f 16/13/10 12/14/10 10/15/10
f 20/13/6 19/14/6 17/15/6
f 24/13/7 23/14/7 19/15/7
f 22/13/8 21/14/8 23/15/8
f 18/13/9 17/14/9 21/15/9
f 19/13/11 23/14/11 21/15/11
f 24/13/10 20/14/10 18/15/10
f 28/16/6 27/17/6 25/18/6
f 32/16/7 31/17/7 27/18/7
f 32/19/8 30/16/8 29/17/8
f 26/16/9 25/17/9 29/18/9
f 27/13/11 31/14/11 29/15/11
f 32/16/10 51/17/10 52/18/10
f 43/13/8 47/14/8 45/15/8
f 11/20/11 15/21/11 44/22/11
f 11/23/11 43/20/11 41/21/11
f 47/13/11 48/14/11 46/15/11
f 42/13/6 46/14/6 48/15/6
f 44/13/9 48/14/9 47/15/9
f 41/13/7 45/14/7 46/15/7
f 51/16/6 55/17/6 56/18/6
f 26/16/10 49/17/10 50/18/10
f 30/16/10 52/17/10 49/18/10
f 28/16/10 50/17/10 51/18/10
f 55/24/10 54/25/10 53/26/10
f 49/16/8 53/17/8 54/18/8
f 52/16/7 56/17/7 53/18/7
f 50/16/9 54/17/9 55/18/9
f 15/20/11 13/21/11 42/22/11
f 13/20/11 9/21/11 41/22/11
f 9/27/6 10/12/6 34/11/6
f 12/9/6 11/28/6 33/10/6
f 34/11/6 10/12/6 12/9/6
f 11/27/7 12/12/7 36/11/7
f 16/9/7 15/28/7 35/10/7
f 35/10/7 36/11/7 12/12/7
f 15/27/8 16/12/8 38/11/8
f 14/9/8 13/28/8 37/10/8
f 38/11/8 16/12/8 14/9/8
f 13/27/9 14/12/9 40/11/9
f 10/9/9 9/28/9 39/10/9
f 39/10/9 40/11/9 14/12/9
f 14/29/10 16/13/10 10/15/10
f 18/29/6 20/13/6 17/15/6
f 20/29/7 24/13/7 19/15/7
f 24/29/8 22/13/8 23/15/8
f 22/29/9 18/13/9 21/15/9
f 17/29/11 19/13/11 21/15/11
f 22/29/10 24/13/10 18/15/10
f 26/19/6 28/16/6 25/18/6
f 28/19/7 32/16/7 27/18/7
f 31/18/8 32/19/8 29/17/8
f 30/19/9 26/16/9 29/18/9
f 25/29/11 27/13/11 29/15/11
f 30/19/10 32/16/10 52/18/10
f 41/29/8 43/13/8 45/15/8
f 43/23/11 11/20/11 44/22/11
f 9/22/11 11/23/11 41/21/11
f 45/29/11 47/13/11 46/15/11
f 44/29/6 42/13/6 48/15/6
f 43/29/9 44/13/9 47/15/9
f 42/29/7 41/13/7 46/15/7
f 52/19/6 51/16/6 56/18/6
f 28/19/10 26/16/10 50/18/10
f 26/19/10 30/16/10 49/18/10
f 32/19/10 28/16/10 51/18/10
f 56/30/10 55/24/10 53/26/10
f 50/19/8 49/16/8 54/18/8
f 49/19/7 52/16/7 53/18/7
f 51/19/9 50/16/9 55/18/9
f 44/23/11 15/20/11 42/22/11
f 42/23/11 13/20/11 41/22/11
o Bottom
v -0.384384 0.378917 -0.703855
v -0.365933 0.640014 -0.721764
v -0.384384 0.037907 -1.950158
v -0.384384 0.217413 -1.965660
v 0.384384 0.378917 -0.703855
v 0.365933 0.640014 -0.721764
v 0.384384 0.037907 -1.950158
v 0.384384 0.217413 -1.965660
v -2.000000 0.000000 2.000000
v -2.000000 0.200000 2.000000
v -2.000000 0.000000 -2.000000
v -2.000000 0.200000 -2.000000
v 2.000000 0.000000 2.000000
v 2.000000 0.200000 2.000000
v 2.000000 0.000000 -2.000000
v 2.000000 0.200000 -2.000000
v -0.703855 0.378917 0.384384
v -0.721764 0.640014 0.365933
v -1.950158 0.037907 0.384384
v -1.965660 0.217413 0.384384
v -0.703855 0.378917 -0.384384
v -0.721764 0.640014 -0.365934
v -1.950158 0.037907 -0.384384
v -1.965660 0.217413 -0.384384
v 0.384384 0.378917 0.703855
v 0.365933 0.640014 0.721764
v 0.384384 0.037907 1.950158
v 0.384384 0.217413 1.965660
v -0.384384 0.378917 0.703855
v -0.365934 0.640014 0.721764
v -0.384384 0.037907 1.950158
v -0.384384 0.217413 1.965660
v 0.703855 0.378917 -0.384384
v 0.721764 0.640014 -0.365933
v 1.950158 0.037907 -0.384384
v 1.965660 0.217413 -0.384384
v 0.703855 0.378917 0.384384
v 0.721764 0.640014 0.365933
v 1.950158 0.037907 0.384384
v 1.965660 0.217413 0.384384
v -1.500000 0.200000 1.500000
v -1.500000 0.200000 -1.500000
v 1.500000 0.200000 -1.500000
v 1.500000 0.200000 1.500000
v -1.500000 0.364341 1.500000
v -1.500000 0.364341 -1.500000
v 1.500000 0.364341 -1.500000
v 1.500000 0.364341 1.500000
v -0.750000 0.364341 0.750000
v -0.750000 0.364341 -0.750000
v 0.750000 0.364341 -0.750000
v 0.750000 0.364341 0.750000
v -0.750000 0.675818 0.750000
v -0.750000 0.675818 -0.750000
v 0.750000 0.675818 -0.750000
v 0.750000 0.675818 0.750000
v -0.647926 0.675818 0.647926
v -0.647926 0.675818 -0.647926
v 0.647926 0.675818 -0.647926
v 0.647926 0.675818 0.647926
v -0.647926 0.600000 0.647926
v -0.647926 0.600000 -0.647926
v 0.647926 0.600000 -0.647926
v 0.647926 0.600000 0.647926
vt 0.488179 0.511821
vt 0.488179 0.990443
vt 0.009557 0.990443
vt 0.992257 0.506907
vt 0.992257 0.989156
vt 0.510007 0.989156
vt 0.009557 0.511821
vt 0.490690 0.510860
vt 0.490690 0.994504
vt 0.007046 0.994504
vt 0.987325 0.513388
vt 0.987325 0.982674
vt 0.518039 0.982674
vt 0.990618 0.612042
vt 0.990618 0.884021
vt 0.505445 0.884021
vt 0.990618 0.505445
vt 0.990618 0.990618
vt 0.505445 0.990618
vt 0.990618 0.604676
vt 0.990618 0.891387
vt 0.505445 0.891387
vt 0.987849 0.013701
vt 0.987849 0.490237
vt 0.511314 0.490237
vt 0.491930 0.010457
vt 0.491930 0.493480
vt 0.008907 0.493480
vt 0.510007 0.506907
vt 0.007046 0.510860
vt 0.518039 0.513388
vt 0.505445 0.612042
vt 0.505445 0.505445
vt 0.505445 0.604676
vt 0.511314 0.013701
vt 0.008907 0.010457
vn -1.000000 0.000000 0.000000
vn 0.000000 -0.086000 -0.996300
vn 0.997500 0.069900 -0.008900
vn 0.000000 0.946800 -0.321700
vn 0.000000 0.000000 -1.000000
vn 1.000000 0.000000 0.000000
vn 0.000000 0.000000 1.000000
vn 0.000000 -1.000000 0.000000
vn 0.000000 1.000000 -0.000000
vn -0.996300 -0.086000 0.000000
vn -0.008900 0.069900 -0.997500
vn -0.321700 0.946800 0.000000
vn 0.000000 -0.086000 0.996300
vn -0.997500 0.069900 0.008900
vn 0.000000 0.946800 0.321700
vn 0.996300 -0.086000 0.000000
vn 0.008900 0.069900 0.997500
vn 0.321700 0.946800 0.000000
vn -0.997500 0.069900 -0.008900
vn -0.008900 0.069900 0.997500
vn 0.997500 0.069900 0.008900
vn 0.008900 0.069900 -0.997500
usemtl Main
f 60/31/12 59/32/12 57/33/12
f 64/34/13 63/35/13 59/36/13
f 64/37/14 62/31/14 61/32/14
f 64/38/15 60/39/15 58/40/15
f 68/34/12 67/35/12 65/36/12
f 72/34/16 71/35/16 67/36/16
f 70/34/17 69/35/17 71/36/17
f 66/34/18 65/35/18 69/36/18
f 67/41/19 71/42/19 69/43/19
f 70/44/20 100/45/20 97/46/20
f 76/31/18 75/32/18 73/33/18
f 80/34/21 79/35/21 75/36/21
f 80/37/22 78/31/22 77/32/22
f 80/38/23 76/39/23 74/40/23
f 84/31/17 83/32/17 81/33/17
f 88/34/24 87/35/24 83/36/24
f 88/37/25 86/31/25 85/32/25
f 88/38/26 84/39/26 82/40/26
f 92/31/16 91/32/16 89/33/16
f 96/34/27 95/35/27 91/36/27
f 96/37/28 94/31/28 93/32/28
f 96/38/29 92/39/29 90/40/29
f 99/47/17 103/48/17 104/49/17
f 68/44/20 98/45/20 99/46/20
f 72/44/20 99/45/20 100/46/20
f 66/44/20 97/45/20 98/46/20
f 101/50/20 105/51/20 106/52/20
f 97/47/12 101/48/12 102/49/12
f 100/47/18 104/48/18 101/49/18
f 98/47/16 102/48/16 103/49/16
f 108/53/18 112/54/18 109/55/18
f 104/50/20 108/51/20 105/52/20
f 102/50/20 106/51/20 107/52/20
f 103/50/20 107/51/20 108/52/20
f 111/53/20 115/54/20 116/55/20
f 106/53/16 110/54/16 111/55/16
f 107/53/17 111/54/17 112/55/17
f 105/53/12 109/54/12 110/55/12
f 116/53/16 120/54/16 117/55/16
f 109/53/20 113/54/20 114/55/20
f 112/53/20 116/54/20 113/55/20
f 110/53/20 114/54/20 115/55/20
f 119/56/20 118/57/20 117/58/20
f 114/53/18 118/54/18 119/55/18
f 115/53/12 119/54/12 120/55/12
f 113/53/17 117/54/17 118/55/17
f 58/37/30 60/31/30 57/33/30
f 60/59/13 64/34/13 59/36/13
f 63/33/17 64/37/17 61/32/17
f 62/60/15 64/38/15 58/40/15
f 66/59/12 68/34/12 65/36/12
f 68/59/16 72/34/16 67/36/16
f 72/59/17 70/34/17 71/36/17
f 70/59/18 66/34/18 69/36/18
f 65/61/19 67/41/19 69/43/19
f 66/62/20 70/44/20 97/46/20
f 74/37/31 76/31/31 73/33/31
f 76/59/21 80/34/21 75/36/21
f 79/33/16 80/37/16 77/32/16
f 78/60/23 80/38/23 74/40/23
f 82/37/32 84/31/32 81/33/32
f 84/59/24 88/34/24 83/36/24
f 87/33/12 88/37/12 85/32/12
f 86/60/26 88/38/26 82/40/26
f 90/37/33 92/31/33 89/33/33
f 92/59/27 96/34/27 91/36/27
f 95/33/18 96/37/18 93/32/18
f 94/60/29 96/38/29 90/40/29
f 100/63/17 99/47/17 104/49/17
f 72/62/20 68/44/20 99/46/20
f 70/62/20 72/44/20 100/46/20
f 68/62/20 66/44/20 98/46/20
f 102/64/20 101/50/20 106/52/20
f 98/63/12 97/47/12 102/49/12
f 97/63/18 100/47/18 101/49/18
f 99/63/16 98/47/16 103/49/16
f 105/65/18 108/53/18 109/55/18
f 101/64/20 104/50/20 105/52/20
f 103/64/20 102/50/20 107/52/20
f 104/64/20 103/50/20 108/52/20
f 112/65/20 111/53/20 116/55/20
f 107/65/16 106/53/16 111/55/16
f 108/65/17 107/53/17 112/55/17
f 106/65/12 105/53/12 110/55/12
f 113/65/16 116/53/16 117/55/16
f 110/65/20 109/53/20 114/55/20
f 109/65/20 112/53/20 113/55/20
f 111/65/20 110/53/20 115/55/20
f 120/66/20 119/56/20 117/58/20
f 115/65/18 114/53/18 119/55/18
f 116/65/12 115/53/12 120/55/12
f 114/65/17 113/53/17 118/55/17
