# 3ds Max Wavefront OBJ Exporter v0.97b - (c)2007 guruware
# File Created: 04.05.2015 00:10:36

mtllib astroMinerLaserFront.mtl

#
# object Main_Laser_Front
#

v  0.0000 -10.0000 -40.0000
v  0.0000 -10.9375 -40.0000
v  0.0000 -10.9375 -31.8750
v  0.0000 -10.0000 -31.8750
v  -0.9375 -12.8125 -40.0000
v  -0.9375 -13.7500 -40.0000
v  -0.9375 -13.7500 -31.8750
v  -0.9375 -12.8125 -31.8750
v  0.9375 -12.8125 -31.8750
v  0.9375 -12.8125 -40.0000
v  0.9375 -13.7500 -40.0000
v  0.9375 -13.7500 -31.8750
v  0.9375 -10.9375 -40.0000
v  0.9375 -10.9375 -17.5000
v  0.9375 -12.8125 -17.5000
v  -0.9375 -12.8125 -17.5000
v  -0.9375 -10.9375 -17.5000
v  -0.9375 -10.9375 -40.0000
# 18 vertices

vn -1.0000 0.0000 -0.0000
vn -1.0000 -0.0000 -0.0000
vn 1.0000 0.0000 0.0000
vn 0.0000 -1.0000 -0.0000
vn 0.0000 -1.0000 0.0000
vn -0.0000 1.0000 -0.0000
vn 0.0000 0.0000 -1.0000
vn 1.0000 -0.0000 0.0000
# 8 vertex normals

vt 0.8086 0.7813 0.5000
vt 0.8086 0.7656 0.5000
vt 0.7461 0.7656 0.5000
vt 0.7461 0.7813 0.5000
vt 0.8086 0.7031 0.4844
vt 0.8086 0.6875 0.4844
vt 0.7461 0.6875 0.4844
vt 0.7461 0.7031 0.4844
vt 0.7461 0.7031 0.5156
vt 0.8086 0.7031 0.5156
vt 0.8086 0.6875 0.5156
vt 0.7461 0.6875 0.5156
vt 0.8086 0.7344 0.5156
vt 0.6367 0.7344 0.5156
vt 0.6367 0.7031 0.5156
vt 0.6367 0.7031 0.4844
vt 0.6367 0.7344 0.4844
vt 0.8086 0.7344 0.4844
vt 0.8086 0.7656 0.0781
vt 0.6367 0.7656 0.0781
vt 0.6367 0.7344 0.0781
vt 0.8086 0.7344 0.0781
vt 0.6367 0.7344 0.1094
vt 0.8086 0.7344 0.1094
vt 0.8086 0.7656 0.1094
vt 0.6367 0.7656 0.1094
vt 0.8242 0.7656 0.7969
vt 0.8242 0.7344 0.7969
vt 0.8086 0.7344 0.7969
vt 0.8086 0.7656 0.7969
# 30 texture coords

g Main_Laser_Front
usemtl 05___Default
s 1
f 1/1/1 2/2/1 3/3/1 4/4/1 
f 5/5/2 6/6/2 7/7/1 8/8/1 
f 9/9/2 10/10/2 11/11/2 12/12/2 
f 10/10/3 13/13/3 14/14/3 15/15/3 
f 5/5/2 16/16/2 17/17/2 18/18/2 
s 2
f 10/19/4 15/20/4 16/21/4 5/22/5 
f 14/23/6 13/24/6 18/25/6 17/26/6 
s 4
f 13/27/7 10/28/7 5/29/7 18/30/7 
s 1
f 2/2/8 1/1/8 4/4/8 3/3/8 
f 6/6/3 5/5/3 8/8/8 7/7/8 
f 10/10/3 9/9/3 12/12/3 11/11/3 
# 11 polygons

