# 3ds Max Wavefront OBJ Exporter v0.97b - (c)2007 guruware
# File Created: 04.05.2015 00:09:23

mtllib astroMinerRightGuard.mtl

#
# object Main_Laser_Right_Guard
#

v  3.7500 -14.3750 -19.3750
v  3.7500 -8.7500 -25.0000
v  3.7500 -8.7500 -7.5000
v  3.7500 -14.3750 -7.5000
v  5.0000 -14.3750 -19.3750
v  5.0000 -14.3750 -7.5000
v  5.0000 -8.7500 -7.5000
v  5.0000 -8.7500 -25.0000
# 8 vertices

vn -1.0000 0.0000 0.0000
vn -1.0000 -0.0000 0.0000
vn 1.0000 -0.0000 -0.0000
vn 1.0000 -0.0000 0.0000
vn 1.0000 0.0000 -0.0000
vn -0.0000 -1.0000 -0.0000
vn 0.0000 1.0000 0.0000
vn -0.0000 -0.7071 -0.7071
# 8 vertex normals

vt 0.3984 0.5859 0.6172
vt 0.3516 0.4922 0.6172
vt 0.5000 0.4922 0.6172
vt 0.5000 0.5859 0.6172
vt 0.3984 0.3750 0.0000
vt 0.5000 0.3750 0.0000
vt 0.5000 0.4688 0.0000
vt 0.3516 0.4688 0.0000
vt 0.3984 0.3516 0.0078
vt 0.5000 0.3516 0.0078
vt 0.5000 0.3750 0.0078
vt 0.3984 0.3750 0.0078
vt 0.5000 0.4922 0.0859
vt 0.3516 0.4922 0.0859
vt 0.3516 0.4688 0.0859
vt 0.5000 0.4688 0.0859
vt 0.2930 0.3516 0.7266
vt 0.3984 0.3516 0.8047
vt 0.3984 0.3750 0.8047
vt 0.2930 0.3750 0.7266
# 20 texture coords

g Main_Laser_Right_Guard
usemtl 05___Default
s 1
f 4/4/2 3/3/2 2/2/1 1/1/1 
f 8/8/5 7/7/3 6/6/4 5/5/3 
s 2
f 5/12/6 6/11/6 4/10/6 1/9/6 
f 7/16/7 8/15/7 2/14/7 3/13/7 
s 4
f 8/20/8 5/19/8 1/18/8 2/17/8 
# 5 polygons

