# 3ds Max Wavefront OBJ Exporter v0.97b - (c)2007 guruware
# File Created: 04.05.2015 00:10:13

mtllib astroMinerLaserCenter.mtl

#
# object Main_Laser_Center
#

v  1.8750 -15.0000 -18.7500
v  1.8750 -15.0000 -22.8125
v  1.8750 -10.0000 -17.8125
v  1.8750 -10.0000 -13.7500
v  -1.8750 -15.0000 -18.7500
v  -1.8750 -10.0000 -13.7500
v  -1.8750 -10.0000 -17.8125
v  -1.8750 -15.0000 -22.8125
# 8 vertices

vn 1.0000 0.0000 0.0000
vn 1.0000 0.0000 -0.0000
vn -1.0000 -0.0000 0.0000
vn -1.0000 -0.0000 -0.0000
vn -0.0000 -0.7071 0.7071
vn 0.0000 -0.7071 0.7071
vn 0.0000 1.0000 0.0000
vn 0.0000 1.0000 -0.0000
vn -0.0000 1.0000 0.0000
vn 0.0000 0.7071 -0.7071
vn 0.0000 -1.0000 -0.0000
# 11 vertex normals

vt 0.7891 0.4141 0.5313
vt 0.8242 0.4141 0.5313
vt 0.7813 0.3281 0.5313
vt 0.7461 0.3281 0.5312
vt 0.7891 0.4141 0.4688
vt 0.7461 0.3281 0.4687
vt 0.7813 0.3281 0.4687
vt 0.8242 0.4141 0.4688
vt 0.8516 0.2656 0.0469
vt 0.8867 0.2656 0.1250
vt 0.8867 0.3281 0.1250
vt 0.8516 0.3281 0.0469
vt 0.7813 0.3281 0.1250
vt 0.7813 0.2656 0.1250
vt 0.7461 0.2656 0.1250
vt 0.7461 0.3281 0.1250
vt 0.8164 0.3281 0.0469
vt 0.8164 0.2656 0.0469
# 18 texture coords

g Main_Laser_Center
usemtl 05___Default
s 1
f 1/1/1 2/2/1 3/3/2 4/4/2 
f 5/5/3 6/6/4 7/7/4 8/8/3 
s 2
f 1/9/5 4/10/5 6/11/5 5/12/6 
s 4
f 4/13/7 3/14/8 7/15/7 6/16/9 
s 2
f 3/13/10 2/17/10 8/18/10 7/14/10 
s 4
f 2/9/11 1/18/11 5/17/11 8/12/11 
# 6 polygons

