# Blender v2.69 (sub 0) OBJ File: 'energyBlaster.blend'
# www.blender.org
o Ring
v 0.200623 1.163777 -0.132192
v 0.180561 1.160594 -0.097008
v 0.140436 1.154227 -0.097008
v 0.120374 1.151044 -0.132192
v 0.140436 1.154227 -0.167376
v 0.180561 1.160594 -0.167376
v 0.133225 1.285288 -0.132192
v 0.119903 1.269953 -0.097008
v 0.093258 1.239285 -0.097008
v 0.079935 1.223951 -0.132192
v 0.093258 1.239285 -0.167376
v 0.119903 1.269953 -0.167376
v 0.003490 1.335048 -0.132192
v 0.003141 1.314737 -0.097008
v 0.002443 1.274117 -0.097008
v 0.002094 1.253807 -0.132192
v 0.002443 1.274117 -0.167376
v 0.003141 1.314737 -0.167376
v -0.127879 1.289774 -0.132192
v -0.115091 1.273991 -0.097008
v -0.089515 1.242425 -0.097008
v -0.076727 1.226642 -0.132192
v -0.089515 1.242425 -0.167376
v -0.115091 1.273991 -0.167376
v -0.199411 1.170650 -0.132192
v -0.179470 1.166780 -0.097008
v -0.139588 1.159039 -0.097008
v -0.119647 1.155168 -0.132192
v -0.139588 1.159039 -0.167376
v -0.179470 1.166780 -0.167376
v -0.177637 1.033416 -0.132192
v -0.159873 1.043269 -0.097008
v -0.124346 1.062975 -0.097008
v -0.106582 1.072828 -0.132192
v -0.124346 1.062975 -0.167376
v -0.159873 1.043269 -0.167376
v -0.072744 0.942285 -0.132192
v -0.065470 0.961251 -0.097008
v -0.050921 0.999183 -0.097008
v -0.043646 1.018149 -0.132192
v -0.050921 0.999183 -0.167376
v -0.065470 0.961251 -0.167376
v 0.066186 0.939898 -0.132192
v 0.059568 0.959102 -0.097008
v 0.046330 0.997512 -0.097008
v 0.039712 1.016717 -0.132192
v 0.046330 0.997512 -0.167376
v 0.059568 0.959102 -0.167376
v 0.174147 1.027372 -0.132192
v 0.156733 1.037829 -0.097008
v 0.121903 1.058744 -0.097008
v 0.104488 1.069201 -0.132192
v 0.121903 1.058744 -0.167376
v 0.156733 1.037829 -0.167376
vt 0.500000 0.500000
vt 1.000000 0.500000
vt 0.500000 1.000000
vt 1.000000 1.000000
vn 0.768651 0.426345 0.476872
vn 0.000000 0.000000 1.000000
vn -0.768650 -0.426345 0.476872
vn -0.768649 -0.426344 -0.476876
vn 0.000000 0.000000 -1.000000
vn 0.768650 0.426345 -0.476872
vn 0.314770 0.820679 0.476870
vn -0.314771 -0.820677 0.476874
vn -0.314770 -0.820676 -0.476876
vn 0.314770 0.820675 -0.476878
vn -0.286393 0.831008 0.476870
vn 0.286393 -0.831008 0.476871
vn 0.286392 -0.831005 -0.476876
vn -0.286394 0.831011 -0.476864
vn -0.753549 0.452498 0.476874
vn 0.753552 -0.452498 0.476870
vn 0.753549 -0.452498 -0.476874
vn -0.753552 0.452499 -0.476869
vn -0.868114 -0.137739 0.476870
vn 0.868115 0.137739 0.476870
vn 0.868115 0.137740 -0.476869
vn -0.000001 0.000000 -1.000000
vn -0.868115 -0.137740 -0.476870
vn -0.576477 -0.663528 0.476870
vn 0.576477 0.663527 0.476871
vn 0.576477 0.663527 -0.476872
vn -0.576477 -0.663527 -0.476871
vn -0.015099 -0.878844 0.476870
vn 0.015100 0.878844 0.476871
vn 0.015099 0.878845 -0.476869
vn -0.015099 -0.878842 -0.476873
vn 0.553342 -0.682939 0.476872
vn -0.553341 0.682937 0.476877
vn -0.553342 0.682937 -0.476875
vn 0.553343 -0.682940 -0.476869
vn 0.862871 -0.167480 0.476870
vn -0.862870 0.167480 0.476872
vn -0.862870 0.167480 -0.476871
vn 0.862870 -0.167480 -0.476871
vn 0.768652 0.426346 0.476868
vn -0.768652 -0.426346 -0.476867
vn 0.768652 0.426346 -0.476869
vn 0.314770 0.820677 0.476873
vn -0.314771 -0.820680 0.476869
vn -0.314772 -0.820680 -0.476868
vn 0.314771 0.820681 -0.476866
vn -0.286394 0.831011 0.476864
vn 0.286392 -0.831005 0.476876
vn 0.286392 -0.831007 -0.476871
vn -0.286392 0.831005 -0.476874
vn -0.753552 0.452499 0.476869
vn 0.753550 -0.452498 0.476874
vn 0.753552 -0.452498 -0.476870
vn -0.753549 0.452498 -0.476875
vn -0.868115 -0.137740 0.476870
vn 0.000001 0.000000 1.000000
vn 0.868114 0.137740 0.476871
vn 0.868114 0.137739 -0.476871
vn -0.868114 -0.137739 -0.476870
vn -0.576477 -0.663527 0.476871
vn 0.576476 0.663527 0.476872
vn 0.576477 0.663528 -0.476870
vn -0.576477 -0.663528 -0.476870
vn -0.015099 -0.878845 0.476869
vn 0.015100 0.878845 0.476869
vn 0.015100 0.878844 -0.476871
vn -0.015099 -0.878844 -0.476870
vn 0.553343 -0.682940 0.476869
vn -0.553344 0.682940 0.476869
vn -0.553343 0.682939 -0.476871
vn 0.553342 -0.682939 -0.476872
vn 0.862870 -0.167480 0.476871
vn -0.862869 0.167480 0.476872
vn 0.862871 -0.167480 -0.476870
s off
f 1/1/1 7/2/1 2/3/1
f 2/1/2 8/2/2 3/3/2
f 3/1/3 9/2/3 4/3/3
f 4/1/4 10/2/4 5/3/4
f 5/1/5 11/2/5 6/3/5
f 1/1/6 6/2/6 7/3/6
f 7/1/7 13/2/7 8/3/7
f 8/1/2 14/2/2 15/4/2
f 9/1/8 15/2/8 10/3/8
f 10/1/9 16/2/9 11/3/9
f 11/1/5 17/2/5 12/3/5
f 12/1/10 18/2/10 7/3/10
f 13/1/11 19/2/11 14/3/11
f 14/1/2 20/2/2 15/3/2
f 15/1/12 21/2/12 16/3/12
f 16/1/13 22/2/13 17/3/13
f 17/1/5 23/2/5 24/4/5
f 18/1/14 24/2/14 13/3/14
f 19/1/15 25/2/15 26/4/15
f 20/1/2 26/2/2 21/3/2
f 21/1/16 27/2/16 28/4/16
f 22/1/17 28/2/17 23/3/17
f 23/1/5 29/2/5 24/3/5
f 24/1/18 30/2/18 19/3/18
f 25/1/19 31/2/19 32/4/19
f 26/1/2 32/2/2 27/3/2
f 27/1/20 33/2/20 28/3/20
f 28/1/21 34/2/21 29/3/21
f 29/1/22 35/2/22 36/4/22
f 30/1/23 36/2/23 25/3/23
f 31/1/24 37/2/24 32/3/24
f 32/1/2 38/2/2 33/3/2
f 33/1/25 39/2/25 40/4/25
f 34/1/26 40/2/26 35/3/26
f 35/1/5 41/2/5 42/4/5
f 36/1/27 42/2/27 31/3/27
f 37/1/28 43/2/28 38/3/28
f 38/1/2 44/2/2 39/3/2
f 39/1/29 45/2/29 40/3/29
f 40/1/30 46/2/30 41/3/30
f 41/1/5 47/2/5 42/3/5
f 42/1/31 48/2/31 37/3/31
f 43/1/32 49/2/32 44/3/32
f 44/1/2 50/2/2 45/3/2
f 45/1/33 51/2/33 46/3/33
f 46/1/34 52/2/34 47/3/34
f 47/1/5 53/2/5 48/3/5
f 48/1/35 54/2/35 49/4/35
f 49/1/36 1/2/36 50/3/36
f 50/1/2 2/2/2 51/3/2
f 51/1/37 3/2/37 52/3/37
f 52/1/38 4/2/38 53/3/38
f 53/1/22 5/2/22 54/3/22
f 54/1/39 6/2/39 1/4/39
f 7/2/40 8/4/40 2/3/40
f 8/2/2 9/4/2 3/3/2
f 9/2/3 10/4/3 4/3/3
f 10/2/41 11/4/41 5/3/41
f 11/2/5 12/4/5 6/3/5
f 6/2/42 12/4/42 7/3/42
f 13/2/43 14/4/43 8/3/43
f 9/3/2 8/1/2 15/4/2
f 15/2/44 16/4/44 10/3/44
f 16/2/45 17/4/45 11/3/45
f 17/2/5 18/4/5 12/3/5
f 18/2/46 13/4/46 7/3/46
f 19/2/47 20/4/47 14/3/47
f 20/2/2 21/4/2 15/3/2
f 21/2/48 22/4/48 16/3/48
f 22/2/49 23/4/49 17/3/49
f 18/3/5 17/1/5 24/4/5
f 24/2/50 19/4/50 13/3/50
f 20/3/51 19/1/51 26/4/51
f 26/2/2 27/4/2 21/3/2
f 22/3/52 21/1/52 28/4/52
f 28/2/53 29/4/53 23/3/53
f 29/2/22 30/4/22 24/3/22
f 30/2/54 25/4/54 19/3/54
f 26/3/55 25/1/55 32/4/55
f 32/2/56 33/4/56 27/3/56
f 33/2/57 34/4/57 28/3/57
f 34/2/58 35/4/58 29/3/58
f 30/3/5 29/1/5 36/4/5
f 36/2/59 31/4/59 25/3/59
f 37/2/60 38/4/60 32/3/60
f 38/2/2 39/4/2 33/3/2
f 34/3/61 33/1/61 40/4/61
f 40/2/62 41/4/62 35/3/62
f 36/3/5 35/1/5 42/4/5
f 42/2/63 37/4/63 31/3/63
f 43/2/64 44/4/64 38/3/64
f 44/2/2 45/4/2 39/3/2
f 45/2/65 46/4/65 40/3/65
f 46/2/66 47/4/66 41/3/66
f 47/2/5 48/4/5 42/3/5
f 48/2/67 43/4/67 37/3/67
f 49/2/68 50/4/68 44/3/68
f 50/2/2 51/4/2 45/3/2
f 51/2/69 52/4/69 46/3/69
f 52/2/70 53/4/70 47/3/70
f 53/2/5 54/4/5 48/3/5
f 43/3/71 48/1/71 49/4/71
f 1/2/72 2/4/72 50/3/72
f 2/2/2 3/4/2 51/3/2
f 3/2/73 4/4/73 52/3/73
f 4/2/38 5/4/38 53/3/38
f 5/2/5 6/4/5 54/3/5
f 49/3/74 54/1/74 1/4/74
o Axle
v -0.041604 1.129241 0.041604
v -0.041604 1.129241 -0.041604
v 0.041604 1.129241 -0.041604
v 0.041604 1.129241 0.041604
v -0.042071 0.805585 0.042071
v -0.042071 0.805585 -0.042071
v 0.042071 0.805585 -0.042071
v 0.042071 0.805585 0.042071
vt 0.000000 0.500000
vt 0.500000 0.500000
vt 0.000000 1.000000
vt 0.500000 1.000000
vn -0.999999 0.001444 0.000000
vn 0.000000 0.001444 -0.999999
vn 0.999999 0.001444 0.000000
vn 0.000000 0.001444 0.999999
s off
f 55/5/75 56/6/75 59/7/75
f 56/5/76 57/6/76 60/7/76
f 57/5/77 58/6/77 61/7/77
f 58/5/78 55/6/78 62/7/78
f 56/6/75 60/8/75 59/7/75
f 57/6/76 61/8/76 60/7/76
f 58/6/77 62/8/77 61/7/77
f 55/6/78 59/8/78 62/7/78
o EnergyBlaster
v -0.000000 1.242149 -0.083616
v -0.000000 1.334889 0.187788
v 0.070871 1.216354 -0.083616
v 0.130483 1.287397 0.187788
v 0.108581 1.151039 -0.083616
v 0.199912 1.167143 0.187788
v 0.095484 1.076765 -0.083616
v 0.175800 1.030395 0.187788
v 0.037710 1.028286 -0.083616
v 0.069429 0.941139 0.187788
v -0.037710 1.028286 -0.083616
v -0.069429 0.941139 0.187788
v -0.095485 1.076765 -0.083616
v -0.175800 1.030395 0.187788
v -0.108581 1.151039 -0.083616
v -0.199912 1.167143 0.187788
v -0.070871 1.216354 -0.083616
v -0.130483 1.287397 0.187788
v -0.000000 1.220784 -0.282212
v 0.057138 1.199988 -0.282212
v 0.087541 1.147329 -0.282212
v 0.076982 1.087447 -0.282212
v 0.030402 1.048363 -0.282212
v -0.030403 1.048363 -0.282212
v -0.076982 1.087447 -0.282212
v -0.087541 1.147329 -0.282212
v -0.057138 1.199988 -0.282212
v -0.000000 1.255622 0.290641
v 0.079531 1.226675 0.290641
v 0.121849 1.153378 0.290641
v 0.107152 1.070029 0.290641
v 0.042318 1.015626 0.290641
v -0.042318 1.015626 0.290641
v -0.107152 1.070029 0.290641
v -0.121849 1.153378 0.290641
v -0.079531 1.226675 0.290641
vt 0.948800 1.000000
vt 0.448800 1.000000
vt 0.948800 0.500000
vt 0.000000 0.500000
vt 0.500000 0.500000
vt 0.000000 1.000000
vt 1.000000 0.836800
vt 0.500000 0.836800
vt 1.000000 0.336800
vt 0.750000 0.500000
vt 0.910697 0.441511
vt 0.589303 0.441511
vt 0.003798 0.293412
vt 0.164495 0.015077
vt 0.033494 0.125000
vt 0.448800 0.500000
vt 0.500000 1.000000
vt 0.500000 0.336800
vt 0.996202 0.293412
vt 0.966506 0.125000
vt 0.835505 0.015077
vt 0.664495 0.015077
vt 0.533494 0.125000
vt 0.503798 0.293412
vt 0.335505 0.015077
vt 0.410697 0.441511
vt 0.496202 0.293412
vt 0.466506 0.125000
vt 0.250000 0.500000
vt 0.089303 0.441511
vn 0.325644 0.894701 -0.305723
vn 0.824561 0.476060 -0.305723
vn 0.937656 -0.165334 -0.305723
vn 0.612012 -0.729366 -0.305724
vn 0.000000 -0.952121 -0.305723
vn -0.612012 -0.729366 -0.305723
vn -0.937656 -0.165334 -0.305723
vn -0.277006 0.761070 0.586550
vn -0.325645 0.894700 -0.305725
vn -0.824560 0.476061 -0.305723
vn -0.340287 0.934927 -0.100577
vn 0.000000 0.000000 -1.000000
vn -0.861634 0.497465 -0.100578
vn -0.979814 -0.172768 -0.100579
vn -0.639529 -0.762159 -0.100579
vn 0.000000 -0.994929 -0.100579
vn 0.639529 -0.762159 -0.100578
vn 0.979814 -0.172768 -0.100579
vn 0.861634 0.497464 -0.100579
vn 0.340286 0.934928 -0.100578
vn 0.000000 0.000001 1.000000
vn -0.701406 0.404956 0.586550
vn -0.797609 -0.140640 0.586549
vn -0.520603 -0.620429 0.586550
vn 0.000000 -0.809913 0.586550
vn 0.520602 -0.620429 0.586551
vn 0.797609 -0.140640 0.586549
vn 0.701406 0.404957 0.586549
vn 0.277006 0.761070 0.586550
vn 0.325644 0.894700 -0.305724
vn 0.612012 -0.729366 -0.305723
vn -0.612011 -0.729366 -0.305723
vn -0.277007 0.761070 0.586549
vn -0.325644 0.894701 -0.305723
vn -0.824561 0.476059 -0.305724
vn -0.340286 0.934927 -0.100578
vn -0.000002 0.000000 -1.000000
vn 0.000002 -0.000000 -1.000000
vn -0.861634 0.497464 -0.100578
vn -0.979814 -0.172767 -0.100578
vn -0.639528 -0.762160 -0.100578
vn 0.639528 -0.762160 -0.100578
vn 0.979814 -0.172767 -0.100579
vn 0.861634 0.497465 -0.100579
vn 0.340287 0.934927 -0.100578
vn -0.000001 0.000000 1.000000
vn 0.000000 0.000000 1.000000
vn -0.701406 0.404957 0.586549
vn -0.797609 -0.140640 0.586550
vn -0.520602 -0.620429 0.586551
vn 0.000000 -0.809913 0.586551
vn 0.520603 -0.620430 0.586549
vn 0.797609 -0.140640 0.586550
vn 0.701405 0.404957 0.586550
vn 0.277007 0.761070 0.586549
s off
f 63/9/79 64/10/79 65/11/79
f 65/9/80 66/10/80 67/11/80
f 67/9/81 68/10/81 69/11/81
f 69/9/82 70/10/82 71/11/82
f 71/9/83 72/10/83 73/11/83
f 73/9/84 74/10/84 75/11/84
f 75/9/85 76/10/85 77/11/85
f 64/12/86 80/13/86 90/14/86
f 79/9/87 80/10/87 63/11/87
f 77/9/88 78/10/88 79/11/88
f 79/15/89 63/16/89 89/17/89
f 81/18/90 82/19/90 89/20/90
f 77/15/91 79/16/91 88/17/91
f 75/15/92 77/16/92 87/17/92
f 73/15/93 75/16/93 86/17/93
f 71/15/94 73/16/94 85/17/94
f 69/15/95 71/16/95 84/17/95
f 67/15/96 69/16/96 83/17/96
f 65/15/97 67/16/97 82/17/97
f 63/15/98 65/16/98 81/17/98
f 93/21/99 95/22/99 94/23/99
f 80/12/100 78/13/100 98/14/100
f 78/12/101 76/13/101 97/14/101
f 76/12/102 74/13/102 96/14/102
f 74/12/103 72/13/103 95/14/103
f 72/12/104 70/13/104 94/14/104
f 70/12/105 68/13/105 93/14/105
f 68/12/106 66/13/106 92/14/106
f 66/12/107 64/13/107 91/14/107
f 64/10/108 66/24/108 65/11/108
f 66/10/80 68/24/80 67/11/80
f 68/10/81 70/24/81 69/11/81
f 70/10/109 72/24/109 71/11/109
f 72/10/83 74/24/83 73/11/83
f 74/10/110 76/24/110 75/11/110
f 76/10/85 78/24/85 77/11/85
f 80/13/111 98/25/111 90/14/111
f 80/10/112 64/24/112 63/11/112
f 78/10/113 80/24/113 79/11/113
f 63/16/114 81/26/114 89/17/114
f 83/27/115 84/28/115 85/29/115
f 83/27/90 85/29/90 86/30/90
f 82/19/90 83/27/90 89/20/90
f 83/27/90 86/30/90 89/20/90
f 86/30/90 87/31/90 89/20/90
f 87/31/116 88/32/116 89/20/116
f 79/16/117 89/26/117 88/17/117
f 77/16/118 88/26/118 87/17/118
f 75/16/119 87/26/119 86/17/119
f 73/16/94 86/26/94 85/17/94
f 71/16/120 85/26/120 84/17/120
f 69/16/121 84/26/121 83/17/121
f 67/16/122 83/26/122 82/17/122
f 65/16/123 82/26/123 81/17/123
f 93/21/99 96/33/99 95/22/99
f 90/34/124 98/35/124 97/36/124
f 91/37/125 90/34/125 97/36/125
f 91/37/125 97/36/125 96/33/125
f 92/38/125 91/37/125 96/33/125
f 93/21/125 92/38/125 96/33/125
f 78/13/126 97/25/126 98/14/126
f 76/13/127 96/25/127 97/14/127
f 74/13/128 95/25/128 96/14/128
f 72/13/129 94/25/129 95/14/129
f 70/13/130 93/25/130 94/14/130
f 68/13/131 92/25/131 93/14/131
f 66/13/132 91/25/132 92/14/132
f 64/13/133 90/25/133 91/14/133
o Base
v -0.146304 0.140310 0.146304
v -0.146304 0.140310 -0.146304
v 0.146304 0.140310 -0.146304
v 0.146304 0.140310 0.146304
v -0.146304 0.140310 0.146304
v -0.146304 0.140310 -0.146304
v 0.146304 0.140310 -0.146304
v 0.146304 0.140310 0.146304
v -0.089808 0.814962 0.089808
v -0.089808 0.814962 -0.089808
v 0.089808 0.814962 -0.089808
v 0.089808 0.814962 0.089808
v -0.370646 0.059008 0.370646
v -0.370646 0.059008 -0.370646
v 0.370646 0.059008 -0.370646
v 0.370646 0.059008 0.370646
v -0.370646 0.223467 0.370646
v -0.370646 0.223467 -0.370646
v 0.370646 0.223467 -0.370646
v 0.370646 0.223467 0.370646
vt 0.500000 0.500000
vt 1.000000 0.500000
vt 0.500000 1.000000
vt 0.000000 0.500000
vt 0.000000 1.000000
vt 1.000000 1.000000
vn 0.000000 1.000000 0.000000
vn -0.996512 0.083449 0.000000
vn 0.000000 0.083449 -0.996512
vn 0.996512 0.083449 0.000000
vn 0.000000 0.083449 0.996512
vn 0.000000 0.000000 1.000000
vn -1.000000 0.000000 0.000000
vn 0.000000 0.000000 -1.000000
vn 1.000000 0.000000 0.000000
vn 0.000000 -1.000000 0.000000
s off
f 109/39/134 108/40/134 110/41/134
f 107/39/135 108/40/135 103/41/135
f 108/39/136 109/40/136 104/41/136
f 109/39/137 110/40/137 105/41/137
f 110/39/138 107/40/138 106/41/138
f 99/39/139 102/40/139 103/41/139
f 102/39/139 101/40/139 106/41/139
f 101/39/139 100/40/139 105/41/139
f 100/39/139 99/40/139 104/41/139
f 115/42/140 116/39/140 111/43/140
f 116/42/141 117/39/141 112/43/141
f 117/42/142 118/39/142 113/43/142
f 118/42/139 115/39/139 114/43/139
f 111/42/143 112/39/143 114/43/143
f 118/42/134 117/39/134 115/43/134
f 108/40/134 107/44/134 110/41/134
f 108/40/135 104/44/135 103/41/135
f 109/40/136 105/44/136 104/41/136
f 110/40/137 106/44/137 105/41/137
f 107/40/138 103/44/138 106/41/138
f 102/40/139 106/44/139 103/41/139
f 101/40/139 105/44/139 106/41/139
f 100/40/139 104/44/139 105/41/139
f 99/40/139 103/44/139 104/41/139
f 116/39/140 112/41/140 111/43/140
f 117/39/141 113/41/141 112/43/141
f 118/39/142 114/41/142 113/43/142
f 115/39/139 111/41/139 114/43/139
f 112/39/143 113/41/143 114/43/143
f 117/39/134 116/41/134 115/43/134
