# Blender v2.69 (sub 0) OBJ File: 'teleporter.blend'
# www.blender.org
o TopMidxMidz
v -0.253971 4.365750 0.253971
v -0.253971 4.365750 -0.253971
v 0.253971 4.365750 -0.253971
v 0.253971 4.365750 0.253971
v -0.253971 4.883273 0.253971
v -0.253971 4.883273 -0.253971
v 0.253971 4.883273 -0.253971
v 0.253971 4.883273 0.253971
vt 0.535299 0.536977
vt 0.964662 0.536977
vt 0.535299 0.966340
vt 0.000000 0.000000
vt 1.000000 0.000000
vt 0.000000 1.000000
vt 0.095217 0.610613
vt 0.389387 0.610613
vt 0.095217 0.904783
vt 0.964662 0.966340
vt 1.000000 1.000000
vt 0.389387 0.904783
vn -1.000000 0.000000 0.000000
vn 0.000000 0.000000 -1.000000
vn 1.000000 0.000000 0.000000
vn 0.000000 0.000000 1.000000
vn 0.000000 -1.000000 0.000000
vn 0.000000 1.000000 0.000000
s off
f 5/1/1 6/2/1 1/3/1
f 6/1/2 7/2/2 2/3/2
f 7/1/3 8/2/3 3/3/3
f 8/1/4 5/2/4 4/3/4
f 1/4/5 2/5/5 4/6/5
f 8/7/6 7/8/6 5/9/6
f 6/2/1 2/10/1 1/3/1
f 7/2/2 3/10/2 2/3/2
f 8/2/3 4/10/3 3/3/3
f 5/2/4 1/10/4 4/3/4
f 2/5/5 3/11/5 4/6/5
f 7/8/6 6/12/6 5/9/6
o Base
v -0.382683 0.451758 -0.923880
v 0.382684 0.451758 -0.923880
v 0.923880 0.451758 -0.382683
v 0.923880 0.451758 0.382684
v 0.382683 0.451758 0.923880
v -0.382684 0.451758 0.923879
v -0.923880 0.451758 0.382683
v -0.923880 0.451758 -0.382683
v -0.494347 0.206533 -1.193459
v 0.494347 0.206533 -1.193459
v 1.193459 0.206533 -0.494347
v 1.193459 0.206533 0.494347
v 0.494347 0.206533 1.193459
v -0.494347 0.206533 1.193459
v -1.193459 0.206533 0.494347
v -1.193459 0.206533 -0.494347
v -0.684079 0.005799 -1.651513
v -0.684079 0.027868 -1.651513
v 0.684079 0.005799 -1.651513
v 0.684079 0.027868 -1.651513
v 1.651513 0.005799 -0.684079
v 1.651513 0.027868 -0.684079
v 1.651513 0.005799 0.684079
v 1.651513 0.027868 0.684079
v 0.684079 0.005799 1.651513
v 0.684079 0.027868 1.651513
v -0.684079 0.005799 1.651513
v -0.684079 0.027868 1.651513
v -1.651513 0.005799 0.684079
v -1.651513 0.027868 0.684079
v -1.651513 0.005799 -0.684079
v -1.651513 0.027868 -0.684079
vt 0.017350 0.516550
vt 0.486010 0.516550
vt 0.017350 0.985210
vt 0.249821 0.496998
vt 0.424819 0.424512
vt 0.074824 0.424512
vt 0.509441 0.519681
vt 0.982079 0.519681
vt 0.509441 0.992319
vt 0.517767 0.525447
vt 0.978873 0.525447
vt 0.517767 0.986553
vt 0.748320 0.986553
vt 0.911345 0.919025
vt 0.585295 0.919025
vt 0.486010 0.985210
vt 0.497306 0.249514
vt 0.424819 0.074517
vt 0.249821 0.002030
vt 0.002337 0.249514
vt 0.074824 0.074517
vt 0.982079 0.992319
vt 0.978873 0.986553
vt 0.978873 0.756000
vt 0.911345 0.592975
vt 0.748320 0.525447
vt 0.585295 0.592975
vt 0.517767 0.756000
vn -0.475814 0.739731 0.475814
vn 0.672903 0.739731 0.000000
vn -0.475814 0.739731 -0.475814
vn 0.000000 1.000000 0.000000
vn 0.000000 0.739731 -0.672903
vn -0.000000 0.739731 0.672903
vn -0.256954 0.931638 0.256954
vn 0.363388 0.931638 0.000000
vn -0.256954 0.931638 -0.256954
vn 0.000000 0.931638 -0.363388
vn 0.475814 0.739731 0.475814
vn -0.672903 0.739731 0.000000
vn 0.475814 0.739731 -0.475814
vn 0.000000 0.000000 -1.000000
vn 0.707107 0.000000 -0.707107
vn 1.000000 0.000000 0.000000
vn 0.707107 0.000000 0.707107
vn -0.000000 0.000000 1.000000
vn -0.707107 0.000000 0.707107
vn -0.707107 0.000000 -0.707107
vn -1.000000 0.000000 0.000000
vn 0.256954 0.931638 0.256954
vn -0.363388 0.931638 0.000000
vn 0.256954 0.931638 -0.256954
vn 0.000000 -1.000000 0.000000
vn 0.000000 0.931638 0.363388
s off
f 14/13/7 15/14/7 22/15/7
f 11/13/8 12/14/8 19/15/8
f 16/13/9 9/14/9 24/15/9
f 10/16/10 9/17/10 11/18/10
f 9/13/11 10/14/11 17/15/11
f 13/13/12 14/14/12 21/15/12
f 22/19/13 23/20/13 36/21/13
f 19/19/14 20/20/14 30/21/14
f 24/19/15 17/20/15 40/21/15
f 17/19/16 18/20/16 26/21/16
f 12/13/17 13/14/17 20/15/17
f 15/13/18 16/14/18 23/15/18
f 10/13/19 11/14/19 18/15/19
f 25/22/20 26/23/20 27/24/20
f 27/22/21 28/23/21 29/24/21
f 29/22/22 30/23/22 31/24/22
f 31/22/23 32/23/23 33/24/23
f 33/22/24 34/23/24 35/24/24
f 35/22/25 36/23/25 37/24/25
f 39/22/26 40/23/26 25/24/26
f 37/22/27 38/23/27 39/24/27
f 20/19/28 21/20/28 32/21/28
f 23/19/29 24/20/29 38/21/29
f 18/19/30 19/20/30 28/21/30
f 25/25/31 27/26/31 39/27/31
f 21/19/32 22/20/32 34/21/32
f 15/14/7 23/28/7 22/15/7
f 12/14/8 20/28/8 19/15/8
f 9/14/9 17/28/9 24/15/9
f 9/17/10 16/29/10 11/18/10
f 16/29/10 15/30/10 14/31/10
f 11/18/10 16/29/10 14/31/10
f 12/32/10 11/18/10 13/33/10
f 11/18/10 14/31/10 13/33/10
f 10/14/11 18/28/11 17/15/11
f 14/14/12 22/28/12 21/15/12
f 23/20/13 38/34/13 36/21/13
f 20/20/14 32/34/14 30/21/14
f 17/20/15 26/34/15 40/21/15
f 18/20/16 28/34/16 26/21/16
f 13/14/17 21/28/17 20/15/17
f 16/14/18 24/28/18 23/15/18
f 11/14/19 19/28/19 18/15/19
f 26/23/20 28/35/20 27/24/20
f 28/23/21 30/35/21 29/24/21
f 30/23/22 32/35/22 31/24/22
f 32/23/23 34/35/23 33/24/23
f 34/23/24 36/35/24 35/24/24
f 36/23/25 38/35/25 37/24/25
f 40/23/26 26/35/26 25/24/26
f 38/23/27 40/35/27 39/24/27
f 21/20/28 34/34/28 32/21/28
f 24/20/29 40/34/29 38/21/29
f 19/20/30 30/34/30 28/21/30
f 27/26/31 29/36/31 39/27/31
f 29/36/31 31/37/31 39/27/31
f 31/37/31 33/38/31 39/27/31
f 33/38/31 35/39/31 39/27/31
f 35/39/31 37/40/31 39/27/31
f 22/20/32 36/34/32 34/21/32
o Top
v -0.382683 4.498791 0.923880
v -0.382683 3.926876 0.923880
v 0.382684 4.498791 0.923879
v 0.382684 3.926876 0.923880
v 0.923880 4.498790 0.382683
v 0.923880 3.926876 0.382683
v 0.923880 4.498790 -0.382684
v 0.923880 3.926876 -0.382683
v 0.382683 4.498790 -0.923880
v 0.382683 3.926876 -0.923880
v -0.382684 4.498790 -0.923880
v -0.382684 3.926876 -0.923879
v -0.923880 4.498790 -0.382683
v -0.923880 3.926876 -0.382683
v -0.923880 4.498791 0.382683
v -0.923880 3.926876 0.382683
v -0.494347 4.791005 1.193459
v -0.494347 4.108981 1.193459
v 0.494347 4.791005 1.193459
v 0.494347 4.108981 1.193459
v 1.193459 4.791005 0.494347
v 1.193459 4.108981 0.494347
v 1.193459 4.791005 -0.494347
v 1.193459 4.108981 -0.494347
v 0.494347 4.791005 -1.193459
v 0.494347 4.108980 -1.193459
v -0.494347 4.791005 -1.193459
v -0.494347 4.108981 -1.193459
v -1.193459 4.791005 -0.494347
v -1.193459 4.108981 -0.494347
v -1.193459 4.791005 0.494347
v -1.193459 4.108981 0.494347
v -0.684079 4.309715 1.651513
v -0.684079 4.287646 1.651513
v 0.684079 4.309715 1.651513
v 0.684079 4.287646 1.651513
v 1.651513 4.309715 0.684079
v 1.651513 4.287646 0.684079
v 1.651513 4.309715 -0.684079
v 1.651513 4.287646 -0.684079
v 0.684079 4.309715 -1.651513
v 0.684079 4.287646 -1.651513
v -0.684079 4.309715 -1.651513
v -0.684079 4.287646 -1.651513
v -1.651513 4.309715 -0.684079
v -1.651513 4.287646 -0.684079
v -1.651513 4.309715 0.684079
v -1.651513 4.287646 0.684079
v 0.986090 3.920346 0.408452
v -0.986090 3.920346 0.408452
v 0.408452 3.920346 0.986090
v -0.408452 3.920346 0.986090
v -0.408452 3.920346 -0.986090
v 0.408452 3.920346 -0.986090
v 0.986090 3.920346 -0.408452
v -0.986090 3.920346 -0.408452
v -0.382683 4.112855 0.923880
v 0.382684 4.112855 0.923880
v 0.923880 4.112855 0.382683
v 0.923880 4.112854 -0.382684
v 0.382683 4.112854 -0.923880
v -0.382684 4.112854 -0.923879
v -0.923880 4.112855 -0.382683
v -0.923880 4.112855 0.382683
vt 0.515253 0.528053
vt 0.977547 0.528053
vt 0.515253 0.990347
vt 0.528715 0.515915
vt 0.983285 0.515915
vt 0.528715 0.970485
vt -0.001005 -0.001005
vt 0.495405 -0.001005
vt -0.001005 0.495405
vt 0.765600 0.991445
vt 0.934348 0.921548
vt 0.596852 0.921548
vt 0.008273 0.517073
vt 0.486127 0.517073
vt 0.008273 0.994927
vt 0.510673 0.520273
vt 0.982127 0.520273
vt 0.510673 0.991727
vt 0.010944 0.510144
vt 0.496256 0.510144
vt 0.010944 0.995456
vt 0.247200 0.495405
vt 0.422707 0.422707
vt 0.071693 0.422707
vt 0.977547 0.990347
vt 0.983285 0.970485
vt 0.495405 0.495405
vt 1.004245 0.752800
vt 0.934348 0.584052
vt 0.765600 0.514155
vt 0.596852 0.584052
vt 0.526955 0.752800
vt 0.486127 0.994927
vt 0.982127 0.991727
vt 0.496256 0.995456
vt 0.495405 0.247200
vt 0.422707 0.071693
vt 0.247200 -0.001005
vt -0.001005 0.247200
vt 0.071693 0.071693
vn -0.519724 0.678065 -0.519725
vn -0.475815 -0.739731 -0.475813
vn 0.735000 0.678067 0.000000
vn 0.672903 -0.739731 0.000000
vn -0.519725 0.678066 0.519723
vn -0.475814 -0.739731 0.475814
vn 0.707106 0.000000 -0.707108
vn 0.000000 -0.739731 0.672902
vn -0.000000 -0.739731 -0.672902
vn 0.000000 1.000000 -0.000002
vn 0.000000 0.689404 -0.724377
vn 0.512211 0.689405 0.512212
vn -0.256954 -0.931638 -0.256954
vn -0.724376 0.689405 0.000000
vn 0.363388 -0.931638 0.000000
vn 0.512211 0.689405 -0.512212
vn -0.256954 -0.931638 0.256955
vn 0.000000 -0.931638 0.363388
vn 0.000000 0.678066 0.735001
vn -0.000000 0.678067 -0.735000
vn 0.475815 -0.739731 -0.475812
vn 0.519724 0.678067 -0.519723
vn -0.672903 -0.739730 0.000000
vn -0.735001 0.678066 0.000001
vn 0.475814 -0.739731 0.475813
vn 0.519724 0.678065 0.519725
vn 0.000000 0.000000 1.000000
vn 0.707082 0.000000 0.707132
vn 1.000000 0.000000 -0.000000
vn 0.707090 0.000000 -0.707124
vn 0.000000 0.000000 -1.000000
vn -0.707113 0.000000 -0.707101
vn -0.707113 0.000000 0.707101
vn -1.000000 0.000000 -0.000000
vn 0.000000 0.689405 0.724376
vn 0.256954 -0.931638 -0.256955
vn -0.512211 0.689405 0.512211
vn -0.363389 -0.931638 -0.000000
vn 0.724376 0.689405 0.000001
vn 0.256954 -0.931638 0.256955
vn -0.512211 0.689404 -0.512212
vn -0.000000 -0.931637 -0.363389
vn 0.073820 -0.994536 0.073813
vn -0.104393 -0.994536 0.000001
vn 0.073820 -0.994537 -0.073803
vn -0.000000 -0.994535 -0.104400
vn 0.000000 -0.994536 0.104390
vn -0.073820 -0.994535 0.073823
vn 0.104397 -0.994536 0.000001
vn -0.073820 -0.994536 -0.073813
vn 0.000000 -1.000000 0.000002
vn 0.707106 0.000000 0.707107
vn -0.707107 0.000000 0.707107
vn -1.000000 0.000001 0.000000
vn -0.707106 0.000000 -0.707107
vn -0.519724 0.678067 -0.519723
vn 0.735001 0.678066 -0.000000
vn -0.519724 0.678065 0.519725
vn -0.475814 -0.739731 0.475815
vn 0.707107 -0.000000 -0.707106
vn 0.000000 -0.739731 0.672903
vn -0.000000 -0.739731 -0.672903
vn 0.000000 1.000000 0.000002
vn 0.000000 1.000000 0.000001
vn 0.000000 1.000000 0.000000
vn 0.000000 1.000000 -0.000001
vn -0.000000 0.689405 -0.724376
vn 0.512212 0.689405 0.512210
vn -0.256955 -0.931638 -0.256954
vn 0.512211 0.689405 -0.512211
vn -0.256954 -0.931638 0.256954
vn 0.475814 -0.739731 -0.475813
vn 0.519724 0.678066 -0.519724
vn -0.672903 -0.739731 -0.000000
vn -0.735001 0.678066 -0.000000
vn 0.475814 -0.739730 0.475816
vn 0.519724 0.678066 0.519724
vn 0.707121 0.000000 0.707092
vn 0.707129 0.000000 -0.707085
vn -0.707105 0.000000 -0.707108
vn -0.707097 0.000000 0.707116
vn 0.256954 -0.931638 -0.256954
vn -0.363388 -0.931638 0.000000
vn 0.724376 0.689405 -0.000000
vn 0.256954 -0.931638 0.256954
vn -0.512212 0.689405 -0.512210
vn -0.000000 -0.931638 -0.363388
vn 0.073820 -0.994536 0.073822
vn -0.104397 -0.994536 0.000000
vn 0.073820 -0.994535 -0.073831
vn 0.000000 -0.994536 -0.104392
vn 0.000000 -0.994535 0.104402
vn -0.073820 -0.994536 0.073813
vn 0.104398 -0.994536 0.000000
vn -0.073817 -0.994536 -0.073822
vn 0.000000 -1.000000 -0.000002
vn -0.000001 -1.000000 0.000001
vn 0.000000 -1.000000 0.000000
vn -0.000001 -1.000000 0.000000
vn 0.707107 0.000000 0.707107
vn -0.707105 0.000000 0.707108
vn -0.707107 0.000000 -0.707106
s off
f 45/41/33 43/42/33 61/43/33
f 93/44/34 96/45/34 68/46/34
f 55/41/35 53/42/35 71/43/35
f 89/44/36 95/45/36 62/46/36
f 49/41/37 47/42/37 65/43/37
f 90/44/38 92/45/38 72/46/38
f 42/47/39 56/48/39 97/49/39
f 92/44/40 91/45/40 58/46/40
f 94/44/41 93/45/41 66/46/41
f 41/50/42 43/51/42 55/52/42
f 67/53/43 65/54/43 83/55/43
f 61/53/44 59/54/44 77/55/44
f 68/44/45 70/45/45 84/46/45
f 71/53/46 69/54/46 87/55/46
f 62/44/47 64/45/47 78/46/47
f 65/53/48 63/54/48 81/55/48
f 72/44/49 58/45/49 88/46/49
f 58/44/50 60/45/50 74/46/50
f 51/41/51 49/42/51 67/43/51
f 43/41/52 41/42/52 59/43/52
f 95/44/53 94/45/53 64/46/53
f 41/41/54 55/42/54 57/43/54
f 96/44/55 90/45/55 70/46/55
f 47/41/56 45/42/56 63/43/56
f 91/44/57 89/45/57 60/46/57
f 53/41/58 51/42/58 69/43/58
f 73/56/59 74/57/59 75/58/59
f 75/56/60 76/57/60 77/58/60
f 77/56/61 78/57/61 79/58/61
f 79/56/62 80/57/62 81/58/62
f 81/56/63 82/57/63 83/58/63
f 83/56/64 84/57/64 85/58/64
f 87/56/65 88/57/65 73/58/65
f 85/56/66 86/57/66 87/58/66
f 59/53/67 57/54/67 75/55/67
f 64/44/68 66/45/68 80/46/68
f 57/53/69 71/54/69 73/55/69
f 70/44/70 72/45/70 86/46/70
f 63/53/71 61/54/71 79/55/71
f 60/44/72 62/45/72 76/46/72
f 69/53/73 67/54/73 85/55/73
f 66/44/74 68/45/74 82/46/74
f 52/59/75 54/60/75 93/61/75
f 46/59/76 48/60/76 89/61/76
f 56/59/77 42/60/77 90/61/77
f 42/59/78 44/60/78 92/61/78
f 50/59/79 52/60/79 94/61/79
f 48/59/80 50/60/80 95/61/80
f 54/59/81 56/60/81 96/61/81
f 44/59/82 46/60/82 91/61/82
f 98/62/83 97/63/83 99/64/83
f 56/47/61 54/48/61 104/49/61
f 54/47/84 52/48/84 103/49/84
f 52/47/59 50/48/59 102/49/59
f 50/47/85 48/48/85 101/49/85
f 48/47/86 46/48/86 100/49/86
f 46/47/87 44/48/87 99/49/87
f 44/47/63 42/48/63 98/49/63
f 43/42/88 59/65/88 61/43/88
f 96/45/34 70/66/34 68/46/34
f 53/42/89 69/65/89 71/43/89
f 95/45/36 64/66/36 62/46/36
f 47/42/90 63/65/90 65/43/90
f 92/45/91 58/66/91 72/46/91
f 56/48/92 104/67/92 97/49/92
f 91/45/93 60/66/93 58/46/93
f 93/45/94 68/66/94 66/46/94
f 43/51/95 45/68/95 55/52/95
f 47/69/96 49/70/96 51/71/96
f 45/68/97 47/69/97 51/71/97
f 55/52/98 45/68/98 53/72/98
f 45/68/98 51/71/98 53/72/98
f 65/54/99 81/73/99 83/55/99
f 59/54/100 75/73/100 77/55/100
f 70/45/101 86/66/101 84/46/101
f 69/54/46 85/73/46 87/55/46
f 64/45/47 80/66/47 78/46/47
f 63/54/102 79/73/102 81/55/102
f 58/45/103 74/66/103 88/46/103
f 60/45/50 76/66/50 74/46/50
f 49/42/51 65/65/51 67/43/51
f 41/42/52 57/65/52 59/43/52
f 94/45/104 66/66/104 64/46/104
f 55/42/105 71/65/105 57/43/105
f 90/45/106 72/66/106 70/46/106
f 45/42/107 61/65/107 63/43/107
f 89/45/108 62/66/108 60/46/108
f 51/42/109 67/65/109 69/43/109
f 74/57/59 76/74/59 75/58/59
f 76/57/110 78/74/110 77/58/110
f 78/57/61 80/74/61 79/58/61
f 80/57/111 82/74/111 81/58/111
f 82/57/63 84/74/63 83/58/63
f 84/57/112 86/74/112 85/58/112
f 88/57/113 74/74/113 73/58/113
f 86/57/66 88/74/66 87/58/66
f 57/54/67 73/73/67 75/55/67
f 66/45/114 82/66/114 80/46/114
f 71/54/69 87/73/69 73/55/69
f 72/45/115 88/66/115 86/46/115
f 61/54/116 77/73/116 79/55/116
f 62/45/117 78/66/117 76/46/117
f 67/54/118 83/73/118 85/55/118
f 68/45/119 84/66/119 82/46/119
f 54/60/120 96/75/120 93/61/120
f 48/60/121 95/75/121 89/61/121
f 42/60/122 92/75/122 90/61/122
f 44/60/123 91/75/123 92/61/123
f 52/60/124 93/75/124 94/61/124
f 50/60/125 94/75/125 95/61/125
f 56/60/126 90/75/126 96/61/126
f 46/60/127 89/75/127 91/61/127
f 97/63/128 104/76/128 99/64/128
f 104/76/129 103/77/129 102/78/129
f 99/64/130 104/76/130 102/78/130
f 100/79/131 99/64/131 101/80/131
f 99/64/83 102/78/83 101/80/83
f 54/48/61 103/67/61 104/49/61
f 52/48/132 102/67/132 103/49/132
f 50/48/59 101/67/59 102/49/59
f 48/48/133 100/67/133 101/49/133
f 46/48/66 99/67/66 100/49/66
f 44/48/134 98/67/134 99/49/134
f 42/48/63 97/67/63 98/49/63
o TopPosxMidz
v 0.746029 4.365750 0.253971
v 0.746029 4.365750 -0.253971
v 1.253971 4.365750 -0.253971
v 1.253971 4.365750 0.253971
v 0.746029 4.883273 0.253971
v 0.746029 4.883273 -0.253971
v 1.253971 4.883273 -0.253971
v 1.253971 4.883273 0.253971
vt 0.535299 0.536977
vt 0.964662 0.536977
vt 0.535299 0.966340
vt 0.000000 0.000000
vt 1.000000 0.000000
vt 0.000000 1.000000
vt 0.095217 0.610613
vt 0.389387 0.610613
vt 0.095217 0.904783
vt 0.964662 0.966340
vt 1.000000 1.000000
vt 0.389387 0.904783
vn -1.000000 0.000000 0.000000
vn 0.000000 0.000000 -1.000000
vn 1.000000 0.000000 0.000000
vn 0.000000 0.000000 1.000000
vn 0.000000 -1.000000 0.000000
vn 0.000000 1.000000 0.000000
s off
f 109/81/135 110/82/135 105/83/135
f 110/81/136 111/82/136 106/83/136
f 111/81/137 112/82/137 107/83/137
f 112/81/138 109/82/138 108/83/138
f 105/84/139 106/85/139 108/86/139
f 112/87/140 111/88/140 109/89/140
f 110/82/135 106/90/135 105/83/135
f 111/82/136 107/90/136 106/83/136
f 112/82/137 108/90/137 107/83/137
f 109/82/138 105/90/138 108/83/138
f 106/85/139 107/91/139 108/86/139
f 111/88/140 110/92/140 109/89/140
o TopMidxPosz
v -0.253971 4.365750 -0.746029
v -0.253971 4.365750 -1.253971
v 0.253971 4.365750 -1.253971
v 0.253971 4.365750 -0.746029
v -0.253971 4.883273 -0.746029
v -0.253971 4.883273 -1.253971
v 0.253971 4.883273 -1.253971
v 0.253971 4.883273 -0.746029
vt 0.535299 0.536977
vt 0.964662 0.536977
vt 0.535299 0.966340
vt 0.000000 0.000000
vt 1.000000 0.000000
vt 0.000000 1.000000
vt 0.095217 0.610613
vt 0.389387 0.610613
vt 0.095217 0.904783
vt 0.964662 0.966340
vt 1.000000 1.000000
vt 0.389387 0.904783
vn -1.000000 0.000000 0.000000
vn 0.000000 0.000000 -1.000000
vn 1.000000 0.000000 0.000000
vn 0.000000 0.000000 1.000000
vn 0.000000 -1.000000 0.000000
vn 0.000000 1.000000 0.000000
s off
f 117/93/141 118/94/141 113/95/141
f 118/93/142 119/94/142 114/95/142
f 119/93/143 120/94/143 115/95/143
f 120/93/144 117/94/144 116/95/144
f 113/96/145 114/97/145 116/98/145
f 120/99/146 119/100/146 117/101/146
f 118/94/141 114/102/141 113/95/141
f 119/94/142 115/102/142 114/95/142
f 120/94/143 116/102/143 115/95/143
f 117/94/144 113/102/144 116/95/144
f 114/97/145 115/103/145 116/98/145
f 119/100/146 118/104/146 117/101/146
o TopPosxNegz
v 0.746029 4.365750 1.253971
v 0.746029 4.365750 0.746029
v 1.253971 4.365750 0.746029
v 1.103971 4.365750 1.103971
v 0.746029 4.883273 1.253971
v 0.746029 4.883273 0.746029
v 1.253971 4.883273 0.746029
v 1.253971 4.883273 1.253971
vt 0.535299 0.536977
vt 0.964662 0.536977
vt 0.535299 0.966340
vt 0.964662 0.966340
vt 0.000000 0.000000
vt 1.000000 0.000000
vt 1.000000 1.000000
vt 0.095217 0.610613
vt 0.389387 0.610613
vt 0.095217 0.904783
vt 0.000000 1.000000
vt 0.389387 0.904783
vn -1.000000 0.000000 0.000000
vn 0.000000 0.000000 -1.000000
vn 1.000000 0.000000 0.000000
vn 0.000000 0.000000 1.000000
vn 0.000000 -1.000000 0.000000
vn 0.000000 1.000000 0.000000
vn 0.862330 -0.354680 0.361370
vn 0.361369 -0.354680 0.862331
s off
f 125/105/147 126/106/147 121/107/147
f 126/105/148 127/106/148 122/107/148
f 127/105/149 128/106/149 123/107/149
f 128/105/150 125/106/150 121/108/150
f 121/109/151 122/110/151 123/111/151
f 128/112/152 127/113/152 125/114/152
f 126/106/147 122/108/147 121/107/147
f 127/106/148 123/108/148 122/107/148
f 128/106/153 124/108/153 123/107/153
f 124/107/154 128/105/154 121/108/154
f 124/115/151 121/109/151 123/111/151
f 127/113/152 126/116/152 125/114/152
o TopMidxNegz
v -0.253971 4.365750 1.253971
v -0.253971 4.365750 0.746029
v 0.253971 4.365750 0.746029
v 0.253971 4.365750 1.253971
v -0.253971 4.883273 1.253971
v -0.253971 4.883273 0.746029
v 0.253971 4.883273 0.746029
v 0.253971 4.883273 1.253971
vt 0.535299 0.536977
vt 0.964662 0.536977
vt 0.535299 0.966340
vt 0.000000 0.000000
vt 1.000000 0.000000
vt 0.000000 1.000000
vt 0.095217 0.610613
vt 0.389387 0.610613
vt 0.095217 0.904783
vt 0.964662 0.966340
vt 1.000000 1.000000
vt 0.389387 0.904783
vn -1.000000 0.000000 0.000000
vn 0.000000 0.000000 -1.000000
vn 1.000000 0.000000 0.000000
vn 0.000000 0.000000 1.000000
vn 0.000000 -1.000000 0.000000
vn 0.000000 1.000000 0.000000
s off
f 133/117/155 134/118/155 129/119/155
f 134/117/156 135/118/156 130/119/156
f 135/117/157 136/118/157 131/119/157
f 136/117/158 133/118/158 132/119/158
f 129/120/159 130/121/159 132/122/159
f 136/123/160 135/124/160 133/125/160
f 134/118/155 130/126/155 129/119/155
f 135/118/156 131/126/156 130/119/156
f 136/118/157 132/126/157 131/119/157
f 133/118/158 129/126/158 132/119/158
f 130/121/159 131/127/159 132/122/159
f 135/124/160 134/128/160 133/125/160
o TopNegxNegz
v -1.103971 4.365750 1.103971
v -1.253971 4.365750 0.746029
v -0.746029 4.365750 0.746029
v -0.746029 4.365750 1.253971
v -1.253971 4.883273 1.253971
v -1.253971 4.883273 0.746029
v -0.746029 4.883273 0.746029
v -0.746029 4.883273 1.253971
vt 0.535299 0.536977
vt 0.964662 0.536977
vt 0.964662 0.966340
vt 0.535299 0.966340
vt 0.000000 0.000000
vt 1.000000 0.000000
vt 0.000000 1.000000
vt 0.095217 0.610613
vt 0.389387 0.610613
vt 0.095217 0.904783
vt 1.000000 1.000000
vt 0.389387 0.904783
vn -1.000000 0.000000 0.000000
vn 0.000000 0.000000 -1.000000
vn 1.000000 0.000000 0.000000
vn 0.000000 0.000000 1.000000
vn 0.000000 -1.000000 0.000000
vn 0.000000 1.000000 0.000000
vn -0.862330 -0.354680 0.361370
vn -0.361370 -0.354680 0.862331
s off
f 141/129/161 142/130/161 138/131/161
f 142/129/162 143/130/162 138/132/162
f 143/129/163 144/130/163 139/132/163
f 144/129/164 141/130/164 140/132/164
f 137/133/165 138/134/165 140/135/165
f 144/136/166 143/137/166 141/138/166
f 137/132/167 141/129/167 138/131/167
f 143/130/162 139/131/162 138/132/162
f 144/130/163 140/131/163 139/132/163
f 141/130/168 137/131/168 140/132/168
f 138/134/165 139/139/165 140/135/165
f 143/137/166 142/140/166 141/138/166
o TopNegxMidz
v -1.253971 4.365750 0.253971
v -1.253971 4.365750 -0.253971
v -0.746029 4.365750 -0.253971
v -0.746029 4.365750 0.253971
v -1.253971 4.883273 0.253971
v -1.253971 4.883273 -0.253971
v -0.746029 4.883273 -0.253971
v -0.746029 4.883273 0.253971
vt 0.535299 0.536977
vt 0.964662 0.536977
vt 0.535299 0.966340
vt 0.000000 0.000000
vt 1.000000 0.000000
vt 0.000000 1.000000
vt 0.095217 0.610613
vt 0.389387 0.610613
vt 0.095217 0.904783
vt 0.964662 0.966340
vt 1.000000 1.000000
vt 0.389387 0.904783
vn -1.000000 0.000000 0.000000
vn 0.000000 0.000000 -1.000000
vn 1.000000 0.000000 0.000000
vn 0.000000 0.000000 1.000000
vn 0.000000 -1.000000 0.000000
vn 0.000000 1.000000 0.000000
s off
f 149/141/169 150/142/169 145/143/169
f 150/141/170 151/142/170 146/143/170
f 151/141/171 152/142/171 147/143/171
f 152/141/172 149/142/172 148/143/172
f 145/144/173 146/145/173 148/146/173
f 152/147/174 151/148/174 149/149/174
f 150/142/169 146/150/169 145/143/169
f 151/142/170 147/150/170 146/143/170
f 152/142/171 148/150/171 147/143/171
f 149/142/172 145/150/172 148/143/172
f 146/145/173 147/151/173 148/146/173
f 151/148/174 150/152/174 149/149/174
o TopNegxPosz
v -1.253971 4.365750 -0.746029
v -1.103971 4.365750 -1.103971
v -0.746029 4.365750 -1.253971
v -0.746029 4.365750 -0.746029
v -1.253971 4.883273 -0.746029
v -1.253971 4.883273 -1.253971
v -0.746029 4.883273 -1.253971
v -0.746029 4.883273 -0.746029
vt 0.535299 0.536977
vt 0.964662 0.536977
vt 0.535299 0.966340
vt 0.964662 0.966340
vt 0.000000 0.000000
vt 1.000000 0.000000
vt 1.000000 1.000000
vt 0.095217 0.610613
vt 0.389387 0.610613
vt 0.095217 0.904783
vt 0.000000 1.000000
vt 0.389387 0.904783
vn -1.000000 0.000000 0.000000
vn 0.000000 0.000000 -1.000000
vn 1.000000 0.000000 0.000000
vn 0.000000 0.000000 1.000000
vn 0.000000 -1.000000 0.000002
vn 0.000000 1.000000 0.000000
vn -0.862330 -0.354680 -0.361370
vn -0.361369 -0.354680 -0.862331
vn 0.000000 -1.000000 0.000000
s off
f 157/153/175 158/154/175 153/155/175
f 158/153/176 159/154/176 155/156/176
f 159/153/177 160/154/177 155/155/177
f 160/153/178 157/154/178 156/155/178
f 153/157/179 154/158/179 155/159/179
f 160/160/180 159/161/180 157/162/180
f 158/154/181 154/156/181 153/155/181
f 154/155/182 158/153/182 155/156/182
f 160/154/177 156/156/177 155/155/177
f 157/154/178 153/156/178 156/155/178
f 156/163/183 153/157/183 155/159/183
f 159/161/180 158/164/180 157/162/180
o TopPosxPosz
v 0.746029 4.365750 -0.746029
v 0.746029 4.365750 -1.253971
v 1.103971 4.365750 -1.103971
v 1.253971 4.365750 -0.746029
v 0.746029 4.883273 -0.746029
v 0.746029 4.883273 -1.253971
v 1.253971 4.883273 -1.253971
v 1.253971 4.883273 -0.746029
vt 0.535299 0.536977
vt 0.964662 0.536977
vt 0.535299 0.966340
vt 0.964662 0.966340
vt 0.000000 0.000000
vt 1.000000 0.000000
vt 0.000000 1.000000
vt 0.095217 0.610613
vt 0.389387 0.610613
vt 0.095217 0.904783
vt 1.000000 1.000000
vt 0.389387 0.904783
vn -1.000000 0.000000 0.000000
vn 0.000000 0.000000 -1.000000
vn 1.000000 0.000000 0.000000
vn 0.000000 0.000000 1.000000
vn 0.000000 -1.000000 0.000000
vn 0.000000 1.000000 0.000000
vn 0.361370 -0.354680 -0.862331
vn 0.862330 -0.354680 -0.361370
vn 0.000000 -1.000000 0.000001
s off
f 165/165/184 166/166/184 161/167/184
f 166/165/185 167/166/185 162/167/185
f 167/165/186 168/166/186 164/168/186
f 168/165/187 165/166/187 164/167/187
f 161/169/188 162/170/188 164/171/188
f 168/172/189 167/173/189 165/174/189
f 166/166/184 162/168/184 161/167/184
f 167/166/190 163/168/190 162/167/190
f 163/167/191 167/165/191 164/168/191
f 165/166/187 161/168/187 164/167/187
f 162/170/192 163/175/192 164/171/192
f 167/173/189 166/176/189 165/174/189
