# Blender v2.69 (sub 0) OBJ File: ''
# www.blender.org
o Pipe
v -1.001688 0.626558 0.180403
v -1.001688 0.626558 -0.180403
v 1.001688 0.626558 -0.180403
v 1.001688 0.626558 0.180403
v -1.001688 0.987364 0.180403
v -1.001688 0.987364 -0.180403
v 1.001688 0.987364 -0.180403
v 1.001688 0.987364 0.180403
v 0.180403 0.626558 1.001688
v -0.180403 0.626558 1.001688
v -0.180403 0.626558 -1.001688
v 0.180403 0.626558 -1.001688
v 0.180403 0.987364 1.001688
v -0.180403 0.987364 1.001688
v -0.180403 0.987364 -1.001688
v 0.180403 0.987364 -1.001688
vt 0.376467 0.376577
vt 0.623313 0.376577
vt 0.376467 0.623423
vt 0.001515 0.375808
vt 0.998485 0.375808
vt 0.001515 0.624192
vt 0.004752 0.623526
vt 0.004752 0.376474
vt 0.995247 0.623526
vt 0.623313 0.623423
vt 0.998485 0.624192
vt 0.995247 0.376474
vn -1.000000 0.000000 0.000000
vn 0.000000 0.000000 -1.000000
vn 1.000000 0.000000 0.000000
vn 0.000000 0.000000 1.000000
vn 0.000000 -1.000000 0.000000
vn 0.000000 1.000000 0.000000
s off
f 5/1/1 6/2/1 1/3/1
f 6/4/2 7/5/2 2/6/2
f 7/1/3 8/2/3 3/3/3
f 8/4/4 5/5/4 4/6/4
f 1/7/5 2/8/5 4/9/5
f 8/7/6 7/8/6 5/9/6
f 13/1/4 14/2/4 9/3/4
f 14/4/1 15/5/1 10/6/1
f 15/1/2 16/2/2 11/3/2
f 16/4/3 13/5/3 12/6/3
f 9/7/5 10/8/5 12/9/5
f 16/7/6 15/8/6 13/9/6
f 6/2/1 2/10/1 1/3/1
f 7/5/2 3/11/2 2/6/2
f 8/2/3 4/10/3 3/3/3
f 5/5/4 1/11/4 4/6/4
f 2/8/5 3/12/5 4/9/5
f 7/8/6 6/12/6 5/9/6
f 14/2/4 10/10/4 9/3/4
f 15/5/1 11/11/1 10/6/1
f 16/2/2 12/10/2 11/3/2
f 13/5/3 9/11/3 12/6/3
f 10/8/5 11/12/5 12/9/5
f 15/8/6 14/12/6 13/9/6
o WalkwayBase
v 0.150000 0.643837 0.988801
v -0.150000 0.643837 0.988801
v -0.150000 0.643837 -0.988801
v 0.150000 0.643837 -0.988801
v 0.150000 0.943837 0.988801
v -0.150000 0.943837 0.988801
v -0.150000 0.943837 -0.988801
v 0.150000 0.943837 -0.988801
v 0.988801 0.643837 -0.150000
v 0.988801 0.643837 0.150000
v -0.988801 0.643837 0.150000
v -0.988801 0.643837 -0.150000
v 0.988801 0.943837 -0.150000
v 0.988801 0.943837 0.150000
v -0.988801 0.943837 0.150000
v -0.988801 0.943837 -0.150000
vt 0.370452 0.370452
vt 0.629548 0.370452
vt 0.370452 0.629548
vt 0.000000 0.407716
vt 1.000000 0.407716
vt 0.000000 0.592284
vt 0.418179 0.000000
vt 0.581821 0.000000
vt 0.418179 1.000000
vt 0.000000 0.409927
vt 1.000000 0.409927
vt 0.000000 0.590073
vt 0.408001 0.000000
vt 0.591999 0.000000
vt 0.408001 1.000000
vt 0.629548 0.629548
vt 1.000000 0.592284
vt 0.581821 1.000000
vt 1.000000 0.590073
vt 0.591999 1.000000
vn 0.000000 0.000000 1.000000
vn -1.000000 0.000000 -0.000000
vn 0.000000 0.000000 -1.000000
vn 1.000000 0.000000 0.000000
vn 0.000000 -1.000000 0.000000
vn 0.000000 1.000000 0.000000
s off
f 21/13/7 22/14/7 17/15/7
f 22/16/8 23/17/8 18/18/8
f 23/13/9 24/14/9 19/15/9
f 24/16/10 21/17/10 20/18/10
f 17/19/11 18/20/11 20/21/11
f 24/19/12 23/20/12 21/21/12
f 29/13/10 30/14/10 25/15/10
f 30/22/7 31/23/7 26/24/7
f 31/13/8 32/14/8 27/15/8
f 32/22/9 29/23/9 28/24/9
f 25/25/11 26/26/11 28/27/11
f 32/25/12 31/26/12 29/27/12
f 22/14/7 18/28/7 17/15/7
f 23/17/8 19/29/8 18/18/8
f 24/14/9 20/28/9 19/15/9
f 21/17/10 17/29/10 20/18/10
f 18/20/11 19/30/11 20/21/11
f 23/20/12 22/30/12 21/21/12
f 30/14/10 26/28/10 25/15/10
f 31/23/7 27/31/7 26/24/7
f 32/14/8 28/28/8 27/15/8
f 29/23/9 25/31/9 28/24/9
f 26/26/11 27/32/11 28/27/11
f 31/26/12 30/32/12 29/27/12
o Walkway
v -0.090685 0.672507 0.090685
v -0.090685 0.672507 -0.090685
v 0.090685 0.672507 -0.090685
v 0.090685 0.672507 0.090685
v -0.090685 1.986790 0.090685
v -0.090685 1.986790 -0.090685
v 0.090685 1.986790 -0.090685
v 0.090685 1.986790 0.090685
v -0.200000 0.606551 0.200000
v -0.200000 0.606551 -0.200000
v 0.200000 0.606551 -0.200000
v 0.200000 0.606551 0.200000
v -0.200000 1.006551 0.200000
v -0.200000 1.006551 -0.200000
v 0.200000 1.006551 -0.200000
v 0.200000 1.006551 0.200000
v -0.200000 1.900000 0.800000
v -0.200000 1.900000 -0.800000
v 0.200000 1.900000 -0.800000
v 0.200000 1.900000 0.800000
v -0.200000 2.100000 0.800000
v -0.200000 2.100000 -0.800000
v 0.200000 2.100000 -0.800000
v 0.200000 2.100000 0.800000
v 0.800000 1.900000 0.800000
v 0.800000 1.900000 -0.800000
v 1.000000 1.900000 -0.800000
v 1.000000 1.900000 0.800000
v 0.800000 2.100000 0.800000
v 0.800000 2.100000 -0.800000
v 1.000000 2.100000 -0.800000
v 1.000000 2.100000 0.800000
v -1.000000 1.900000 1.000000
v -1.000000 1.900000 0.800000
v 1.000000 1.900000 0.800000
v 1.000000 1.900000 1.000000
v -1.000000 2.100000 1.000000
v -1.000000 2.100000 0.800000
v 1.000000 2.100000 0.800000
v 1.000000 2.100000 1.000000
v -1.000000 1.900000 -0.800000
v -1.000000 1.900000 -1.000000
v 1.000000 1.900000 -1.000000
v 1.000000 1.900000 -0.800000
v -1.000000 2.100000 -0.800000
v -1.000000 2.100000 -1.000000
v 1.000000 2.100000 -1.000000
v 1.000000 2.100000 -0.800000
v -1.000000 1.900000 0.800000
v -1.000000 1.900000 -0.800000
v -0.800000 1.900000 -0.800000
v -0.800000 1.900000 0.800000
v -1.000000 2.100000 0.800000
v -1.000000 2.100000 -0.800000
v -0.800000 2.100000 -0.800000
v -0.800000 2.100000 0.800000
v 0.800000 1.900010 0.200000
v -0.800000 1.900010 0.200000
v -0.800000 1.900010 -0.200000
v 0.800000 1.900010 -0.200000
v 0.800000 2.100010 0.200000
v -0.800000 2.100010 0.200000
v -0.800000 2.100010 -0.200000
v 0.800000 2.100010 -0.200000
vt 0.000000 0.000000
vt 1.000000 0.000000
vt 0.000000 1.000000
vt 0.000000 0.404883
vt 1.000000 0.404883
vt 0.000000 0.595117
vt 0.094929 -0.001166
vt 0.905071 -0.001166
vt 0.094929 0.090633
vt 0.904693 0.001032
vt 0.992096 0.001032
vt 0.904693 0.088435
vt 0.004563 0.000000
vt 0.060852 0.000000
vt 0.004563 1.000000
vt 1.000000 1.000000
vt 1.000000 0.595117
vt 0.905071 0.090633
vt 0.992096 0.088435
vt 0.060852 1.000000
vn -1.000000 0.000000 0.000000
vn 0.000000 0.000000 -1.000000
vn 1.000000 0.000000 -0.000000
vn 0.000000 0.000000 1.000000
vn 0.000000 -1.000000 0.000000
vn 0.000000 1.000000 0.000000
vn 0.000000 1.000000 -0.000001
s off
f 37/33/13 38/34/13 33/35/13
f 38/33/14 39/34/14 34/35/14
f 39/33/15 40/34/15 35/35/15
f 40/33/16 37/34/16 36/35/16
f 33/33/17 34/34/17 36/35/17
f 40/33/18 39/34/18 37/35/18
f 45/33/13 46/34/13 41/35/13
f 46/33/14 47/34/14 42/35/14
f 47/33/15 48/34/15 43/35/15
f 48/33/16 45/34/16 44/35/16
f 41/33/17 42/34/17 44/35/17
f 48/33/18 47/34/18 45/35/18
f 53/33/13 54/34/13 49/35/13
f 54/33/14 55/34/14 50/35/14
f 55/33/15 56/34/15 51/35/15
f 56/33/16 53/34/16 52/35/16
f 49/33/17 50/34/17 52/35/17
f 56/36/18 55/37/18 53/38/18
f 61/39/13 62/40/13 57/41/13
f 62/33/14 63/34/14 58/35/14
f 63/39/15 64/40/15 59/41/15
f 64/33/16 61/34/16 60/35/16
f 57/39/17 58/40/17 60/41/17
f 64/39/18 63/40/18 61/41/18
f 69/42/13 70/43/13 65/44/13
f 70/45/14 71/46/14 66/47/14
f 71/42/15 72/43/15 67/44/15
f 72/45/16 69/46/16 68/47/16
f 65/45/17 66/46/17 68/47/17
f 72/45/18 71/46/18 69/47/18
f 77/42/13 78/43/13 73/44/13
f 78/45/14 79/46/14 74/47/14
f 79/42/15 80/43/15 75/44/15
f 80/45/16 77/46/16 76/47/16
f 73/45/17 74/46/17 76/47/17
f 80/45/18 79/46/18 77/47/18
f 85/39/13 86/40/13 81/41/13
f 86/33/14 87/34/14 82/35/14
f 87/39/15 88/40/15 83/41/15
f 88/33/16 85/34/16 84/35/16
f 81/39/17 82/40/17 84/41/17
f 88/39/18 87/40/18 85/41/18
f 93/33/16 94/34/16 89/35/16
f 94/33/13 95/34/13 90/35/13
f 95/33/14 96/34/14 91/35/14
f 96/33/15 93/34/15 92/35/15
f 89/33/17 90/34/17 92/35/17
f 96/36/18 95/37/18 93/38/18
f 38/34/13 34/48/13 33/35/13
f 39/34/14 35/48/14 34/35/14
f 40/34/15 36/48/15 35/35/15
f 37/34/16 33/48/16 36/35/16
f 34/34/17 35/48/17 36/35/17
f 39/34/19 38/48/19 37/35/19
f 46/34/13 42/48/13 41/35/13
f 47/34/14 43/48/14 42/35/14
f 48/34/15 44/48/15 43/35/15
f 45/34/16 41/48/16 44/35/16
f 42/34/17 43/48/17 44/35/17
f 47/34/18 46/48/18 45/35/18
f 54/34/13 50/48/13 49/35/13
f 55/34/14 51/48/14 50/35/14
f 56/34/15 52/48/15 51/35/15
f 53/34/16 49/48/16 52/35/16
f 50/34/17 51/48/17 52/35/17
f 55/37/18 54/49/18 53/38/18
f 62/40/13 58/50/13 57/41/13
f 63/34/14 59/48/14 58/35/14
f 64/40/15 60/50/15 59/41/15
f 61/34/16 57/48/16 60/35/16
f 58/40/17 59/50/17 60/41/17
f 63/40/18 62/50/18 61/41/18
f 70/43/13 66/51/13 65/44/13
f 71/46/14 67/52/14 66/47/14
f 72/43/15 68/51/15 67/44/15
f 69/46/16 65/52/16 68/47/16
f 66/46/17 67/52/17 68/47/17
f 71/46/18 70/52/18 69/47/18
f 78/43/13 74/51/13 73/44/13
f 79/46/14 75/52/14 74/47/14
f 80/43/15 76/51/15 75/44/15
f 77/46/16 73/52/16 76/47/16
f 74/46/17 75/52/17 76/47/17
f 79/46/18 78/52/18 77/47/18
f 86/40/13 82/50/13 81/41/13
f 87/34/14 83/48/14 82/35/14
f 88/40/15 84/50/15 83/41/15
f 85/34/16 81/48/16 84/35/16
f 82/40/17 83/50/17 84/41/17
f 87/40/18 86/50/18 85/41/18
f 94/34/16 90/48/16 89/35/16
f 95/34/13 91/48/13 90/35/13
f 96/34/14 92/48/14 91/35/14
f 93/34/15 89/48/15 92/35/15
f 90/34/17 91/48/17 92/35/17
f 95/37/18 94/49/18 93/38/18
o Wire
v -1.001688 0.626558 0.180403
v -1.001688 0.626558 -0.180403
v 1.001688 0.626558 -0.180403
v 1.001688 0.626558 0.180403
v -1.001688 0.987364 0.180403
v -1.001688 0.987364 -0.180403
v 1.001688 0.987364 -0.180403
v 1.001688 0.987364 0.180403
v 0.180403 0.626558 1.001688
v -0.180403 0.626558 1.001688
v -0.180403 0.626558 -1.001688
v 0.180403 0.626558 -1.001688
v 0.180403 0.987364 1.001688
v -0.180403 0.987364 1.001688
v -0.180403 0.987364 -1.001688
v 0.180403 0.987364 -1.001688
vt 0.809853 0.438768
vt 0.932317 0.438768
vt 0.809853 0.561232
vt 0.187799 0.438302
vt 0.812201 0.438302
vt 0.187799 0.561698
vt 0.189827 0.561367
vt 0.189827 0.438633
vt 0.810173 0.561367
vt 0.932317 0.561232
vt 0.812201 0.561698
vt 0.810173 0.438633
vn -1.000000 0.000000 0.000000
vn 0.000000 0.000000 -1.000000
vn 1.000000 0.000000 0.000000
vn 0.000000 0.000000 1.000000
vn 0.000000 -1.000000 0.000000
vn 0.000000 1.000000 0.000000
s off
f 101/53/20 102/54/20 97/55/20
f 102/56/21 103/57/21 98/58/21
f 103/53/22 104/54/22 99/55/22
f 104/56/23 101/57/23 100/58/23
f 97/59/24 98/60/24 100/61/24
f 104/59/25 103/60/25 101/61/25
f 102/54/20 98/62/20 97/55/20
f 103/57/21 99/63/21 98/58/21
f 104/54/22 100/62/22 99/55/22
f 101/57/23 97/63/23 100/58/23
f 98/60/24 99/64/24 100/61/24
f 103/60/25 102/64/25 101/61/25
f 109/53/23 110/54/23 105/55/23
f 110/56/20 111/57/20 106/58/20
f 111/53/21 112/54/21 107/55/21
f 112/56/22 109/57/22 108/58/22
f 105/59/24 106/60/24 108/61/24
f 112/59/25 111/60/25 109/61/25
f 110/54/23 106/62/23 105/55/23
f 111/57/20 107/63/20 106/58/20
f 112/54/21 108/62/21 107/55/21
f 109/57/22 105/63/22 108/58/22
f 106/60/24 107/64/24 108/61/24
f 111/60/25 110/64/25 109/61/25
